<svg width="1058" height="669" viewBox="0 0 1058 669" fill="none" xmlns="http://www.w3.org/2000/svg">
<rect width="1060" height="711" transform="translate(-6 -21)" fill="white"/>
<path d="M1054 -21H-6V638H1054V-21Z" fill="#F5AA78" fill-opacity="0.04"/>
<g clip-path="url(#clip0)">
<path d="M701.618 470.841C701.723 470.251 701.828 469.661 701.927 469.101C703.412 460.679 703.529 452.31 704.903 443.835C705.435 440.591 704.838 436.126 707.667 433.808C712.285 429.975 710.876 441.257 710.748 443.151C710.619 445.044 709.912 446.919 709.579 448.824C709.246 450.729 709.468 452.605 709.281 454.492C708.86 458.697 707.767 462.784 707.527 466.972C707.223 471.641 706.509 476.273 705.394 480.814C704.564 484.353 703.88 487.891 703.096 491.466C702.512 494.208 701.623 498.059 701.454 500.772C701.261 503.88 700.361 508.404 696.263 508.398C691.944 508.398 690.886 501.728 690.354 498.596C689.185 491.802 688.314 484.901 687.121 478.066C685.765 470.281 684.569 462.47 683.532 454.634C683.024 450.747 682.948 446.707 682.515 442.75C682.27 440.473 682.135 438.155 681.931 435.885C681.814 434.422 681.931 433.449 683.749 433.172C688.32 432.464 688.589 440.455 688.606 443.345C688.557 449.83 689.083 456.306 690.178 462.696C691.166 467.632 692.043 472.616 692.756 477.576C693.099 480.16 693.597 482.72 694.247 485.243C694.551 486.423 695.036 490.41 696.035 491.177C698.783 493.27 698.777 485.007 698.999 483.899C699.583 481.115 700.209 478.449 700.589 475.583C700.811 473.984 701.331 472.404 701.618 470.841Z" fill="#BC2F25"/>
<path d="M724.133 450.14C724.262 447.893 724.472 445.658 724.805 443.446C725.045 441.901 725.098 438.457 726.559 437.643C729.289 436.133 731.381 446.218 731.715 447.598C732.252 449.833 732.428 452.428 733.31 454.546C736.133 461.387 738.254 468.501 739.641 475.778C739.857 476.922 741.85 489.054 743.51 488.641C744.82 488.311 743.873 483.333 743.756 482.383C743.414 479.422 743.264 476.441 743.306 473.46C743.347 470.617 742.861 467.727 743.078 464.926C743.592 458.167 743.984 451.361 743.399 444.602C743.2 442.243 743.586 435.861 747.491 437.177C750.373 438.156 747.918 446.873 747.806 448.972C747.59 453.018 747.146 457.064 747.193 461.128C747.234 465.097 746.988 469.031 747.257 472.959C747.97 483.274 748.765 493.637 748.245 503.981C748.134 506.134 748.748 512.197 745.515 512.486C743.446 512.669 741.809 509.348 741.353 507.691C739.88 502.306 739.383 496.715 738.179 491.271C737.215 486.925 736.858 482.549 736.058 478.167C735.503 474.888 734.661 471.665 733.544 468.535C732.661 466.176 732.451 462.938 730.581 461.116C727.447 458.055 728.09 467.45 728.12 468.889C728.219 474.309 728.453 479.747 728.085 485.167C727.868 488.34 728.266 491.248 728.459 494.456C728.745 499.458 729.569 505.072 728.862 510.027C728.207 514.662 723.14 511.796 723.017 508.381C722.912 505.733 723.338 503.032 723.274 500.36C723.204 497.57 723.034 494.781 723.151 491.991C723.274 488.682 723.438 485.368 723.303 482.053C722.812 471.502 723.543 460.685 724.133 450.14Z" fill="#BC2F25"/>
</g>
<path d="M673.581 512.485C673.21 512.547 672.834 512.572 672.459 512.561C671.202 512.485 669.939 512.514 668.677 512.514C664.673 512.514 664.001 512.29 659.991 512.196C658.009 512.143 656.022 512.196 654.052 512.137C653.216 512.137 652.111 512.137 651.462 512.803C650.708 513.546 650.942 516.342 651.69 517.032C652.439 517.722 653.444 517.622 654.379 517.687C657.197 517.958 659.552 518.394 662.387 518.023C663.948 517.816 662.159 517.852 663.732 517.852C666.193 517.937 668.658 517.89 671.114 517.71C672.622 517.551 674.762 517.999 675.96 516.772C677.006 515.711 676.819 513.01 675.305 512.496C674.737 512.374 674.15 512.37 673.581 512.485Z" fill="#BC2F25"/>
<path d="M56.1135 199.125C59.0789 201.835 64.2493 204.005 67.9543 205.021C68.5211 203.1 69.6547 201.462 70.0833 199.36C74.2307 200.95 78.7029 202.554 81.9724 206.929C91.4216 194.563 92.2303 204.814 100.677 205.173C110.078 205.567 108.046 203.584 117.018 194.708C131.686 212.625 136.089 199.671 137.063 182.563C154.406 187.34 150.791 191.736 152.409 209.452C153.487 221.238 157.835 232.325 158.505 244.373C165.535 219.247 156.618 188.522 156.646 162.338C156.708 162.815 159.971 166.7 161.215 168.801C166.054 165.186 167.837 166.333 173.173 167.356C177.915 190.72 171.867 219.751 179.159 241.663C180.328 229.754 183.417 218.818 184.067 206.743C184.551 197.68 179.878 179.584 190.613 180.393C192.203 180.51 197.069 190.616 199.226 191.618C203.733 193.692 211.537 189.317 216.057 191.432C224.877 195.579 226.149 209.549 232.75 217.256C233.988 216.358 237.257 215.473 238.612 214.491C247.093 226.394 251.497 250.027 252.623 264.198C252.623 253.352 250.55 240.205 254.234 230.078C255.153 248.106 259.874 265.691 263.379 283.303C265.453 293.706 268.529 304.731 269.42 315.376C270.167 324.245 266.939 334.489 272.095 341.892C280.044 322.344 272.786 293.706 274.259 272.458C280.77 278.52 288.913 273.149 289.418 264.91C293.205 264.73 295.169 264.467 298.369 266.403C299.122 265.297 300.892 264.281 299.855 264.46C299.558 295.096 305.247 329.609 309 360.209C309.207 354.991 311.205 352.164 313.23 348.673C314.191 349.329 318.532 352.509 319.451 353.276C318.104 363.811 322.991 377.532 324.58 388.094C326.855 403.19 328.493 418.881 330.421 434.143C333.38 457.535 343.928 479.868 345.628 503.882C346.527 516.372 356.038 541.208 353.232 552.641C344.439 587.977 258.485 569.797 235.032 569.369C215.062 569.002 194.664 568.055 175.268 564.834C160.565 562.387 155.796 550.457 141.397 546.171C129.031 542.494 110.389 543.945 97.2141 545.024C80.4725 546.406 68.4658 555.489 60.2678 540.185C41.7705 505.672 43.9617 455.212 43.9202 417.374C43.8788 373.066 50.3141 329.035 51.5238 284.838C52.215 260.976 48.4823 237.005 48.4823 212.839" fill="#664833"/>
<path d="M1073.87 514.512C1040.99 516.724 1017.88 497.231 1013.22 466.817C1011.99 479.135 1009.88 492.51 1011.41 504.876C1009.42 488.874 1010.47 472.188 1005.83 456.58C1001.76 442.921 991.196 433.078 989.468 418.804C979.099 417.747 966.761 416.281 956.821 420.284C955.439 443.875 959.586 472.382 951.906 494.895C951.692 494.204 947.669 482.971 947.42 482.266C948.111 487.402 947.524 493.153 945.886 497.266C943.881 489.261 931.653 475.838 926.393 468.925C925.294 479.239 920.338 487.879 921.513 498.787C919.917 493.929 917.328 489.456 913.909 485.653C897.714 496.45 904.523 508.201 902.981 524.95C894.251 521.874 892.682 506.881 888.313 499.374C887.954 510.696 882.389 525.109 875.401 534.108C874.558 533.597 874.019 532.214 873.037 531.731C872.595 537.198 873.196 546.599 868.24 549.633C860.436 554.41 861.708 542.03 852.971 551.133C843.293 561.212 840.667 584.216 837.888 596.416C884.269 616.849 937.003 608.264 986.661 605.824C1005.05 604.925 1023.85 607.579 1041.85 604.04C1054.5 601.559 1065.2 594.556 1076.89 590.672" fill="#664833"/>
<path d="M353.854 379.357C455.845 339.915 562.764 391.799 626.199 473.364C648.035 501.442 699.822 571.028 659.454 604.366C612.747 642.937 559.834 639.08 502.102 646.683C441.613 654.674 379.063 656.36 318.415 649.227C284.766 645.287 236.739 643.739 218.186 610.815C178.613 540.503 228.112 472.638 278.372 426.748C301.044 406.059 326.55 389.912 353.854 379.357Z" fill="#F1CCB2"/>
<path opacity="0.8" d="M603.575 611.976C602.621 639.84 461.202 632.167 438.896 634.586C419.818 636.66 395.307 651.667 377.072 642.819C374.681 601.933 386.204 575.562 404.673 539.826C416.424 517.084 416.991 505.672 441.308 524.847C502.358 572.991 472.338 485.689 515.871 469.154C532.295 462.933 552.811 531.635 558.534 543.012C565.391 556.643 573.866 568.961 582.147 581.514C585.444 586.546 603.761 606.446 603.575 611.976Z" fill="#21515D"/>
<path d="M1063.21 517.561C1058.17 521.017 1048.69 521.77 1041.88 522.399C1037.38 522.835 1035.07 527.114 1030.03 526.471C1026.89 526.07 1026.19 516.607 1020.5 517.416C1012.66 518.535 1012.9 530.362 1007.25 534.696C998.682 541.318 997.196 538.021 987.034 537.33C966.65 535.947 960.581 548.016 945.892 555.613C943.058 557.078 939.561 556.353 936.374 558.281C933.188 560.21 932.745 565.138 930.651 566.355C924.934 569.659 916.64 572.071 912.112 565.021C905.891 565.207 898.868 567.585 892.53 566.279C882.852 564.281 885.617 560.141 877.246 555.585C864.058 548.376 852.487 554.894 842.249 538.851C836.45 529.768 831.611 515.141 818.215 512.584C807.543 510.51 804.322 521.722 792.011 523.644C780.26 525.496 764.866 518.321 755.376 512.943C750.35 510.089 745.201 506.667 740.217 503.729C736.878 501.766 730.263 496.817 726.171 494.999C718.298 491.543 698.522 487.845 689.868 491.543C678.967 496.216 669.995 512.19 659.882 519.04C647.799 527.217 640.148 535.913 629.337 544.94C610.915 560.369 579.9 566.5 556.903 572.811C538.447 577.871 519.632 576.813 502.524 584.216C491.464 589.055 483.377 597.018 473.236 602.499C454.22 612.792 432.336 612.301 414.482 622.725C402.924 629.45 370.367 646.683 368.653 660.507C399.358 667.489 431.749 661.89 462.778 659.622C571.031 651.646 679.091 650.505 787.511 645.874C836.733 643.8 885.88 648.12 934.888 648.583C959.461 648.812 984.055 649.966 1008.61 651.272C1027.61 652.261 1050.59 658.42 1069.01 652.171C1116.71 636.01 1076.9 592.974 1069.62 565.131C1066.25 552.288 1072.17 530.957 1060.17 522.123" fill="#5E8E8C"/>
<path d="M-17.0187 398.717C-8.91053 374.337 -3.23553 352.419 19.9138 337.661C54.8209 315.417 96.267 332.94 129.232 350.262C145.607 358.868 155.927 371.137 167.726 384.651C180.915 399.754 200.263 391.127 216.624 397.169C239.02 405.464 239.912 432 242.393 452.046C244.128 466.043 243.727 474.718 251.04 486.925C247.322 480.704 278.973 490.492 280.072 491.072C290.129 496.319 299.655 499.056 305.883 508.623C311.571 517.36 308.965 532.415 322.631 535.899C329.384 537.627 336.152 527.265 345.214 530.003C354.082 532.684 364.796 544.698 374.501 549.17C383.487 553.318 394.388 554.617 399.696 563.831C412.373 585.833 416.21 597.66 445.172 598.69C472.49 599.658 498.501 586.068 525.763 586.068C562.792 586.068 600.139 595.662 636.643 592.407C668.44 589.573 700.63 582.308 732.579 588.363C750.24 591.709 766.117 597.667 783.951 599.72C855.742 607.973 928.529 607.42 1000.71 610.738C1024.38 611.817 1051.71 604.89 1065.97 628.406C1087.73 664.267 1060.26 675.997 1028.87 680.483C937.729 693.52 838.489 677.594 746.542 677.532C669.67 677.449 593.856 688.916 517.454 690.23C456.509 691.26 394.989 675.292 333.953 672.645C292.95 670.875 252.63 663.756 211.385 662.262C168.037 660.693 125.243 666.41 82.0277 666.873C42.5792 667.274 -20.0946 667.889 -28.8525 619.676C-33.8639 591.902 -35.3846 562.013 -32.6681 533.97C-29.4055 500.369 -29.4885 453.297 -9.4013 424.618" fill="#143138"/>
<path d="M897.548 338.788C892.578 314.381 868.267 304.8 847.088 315.749C833.803 322.627 828.093 343.315 833.264 357.085C839.906 374.863 857.519 383.497 875.802 379.543C893.027 375.81 900.956 355.509 897.548 338.788Z" fill="#5E8E8C"/>
<path d="M816.169 366.43C817.448 369.886 823.386 367.529 826.137 366.969C838.496 364.439 849.072 357.002 860.83 352.813C871.392 349.053 881.221 344.442 891.541 340.184C896.988 337.938 904.82 335.788 908.532 330.859C915.651 321.417 895.765 329.422 893 328.945C893.836 324.106 905.725 320.968 909.658 321.576C911.068 321.744 912.424 322.22 913.63 322.968C914.836 323.717 915.864 324.721 916.64 325.91C920.601 332.505 914.262 339.41 908.974 342.693C901.025 347.636 892.156 349.55 883.917 353.442C875.187 357.589 866.069 360.61 857.097 364.128C850.641 366.658 844.268 369.043 837.881 371.663C831.805 374.158 825.349 375.948 818.727 375.575C812.914 375.25 804.439 373.501 808.925 366.223C810.626 363.458 813.183 361.149 815.568 358.986C816.999 357.693 831.335 346.626 832.012 351.866C832.303 354.105 829.047 355.916 827.347 356.704C824.54 358.087 815.008 361.211 816.031 365.919C816.063 366.093 816.11 366.264 816.169 366.43V366.43Z" fill="#664833"/>
<path d="M768.787 491.84C768.594 491.085 768.202 490.366 768.05 489.611C767.848 488.207 767.799 486.785 767.904 485.37C768.395 483.011 768.208 477.626 768.191 475.214C768.191 472.548 768.249 467.588 768.103 465.447C768.015 464.014 768.547 458.741 767.267 457.78C767.068 457.633 766.887 457.35 766.729 457.296C765.56 456.353 764.298 457.55 763.193 457.886C761.919 458.287 761.352 457.798 760.27 457.208C759.189 456.618 758.517 456.836 757.523 457.432C757.445 457.475 757.371 457.524 757.301 457.58C756.021 458.535 756.716 463.996 756.658 465.43C756.518 467.57 756.611 472.507 756.599 475.196C756.599 477.614 756.412 482.97 756.909 485.352C757.019 486.767 756.974 488.189 756.775 489.593C756.529 491.05 755.676 492.223 756.132 493.774C756.324 494.384 756.569 494.976 756.862 495.544C757.242 496.281 757.769 496.334 757.938 495.485C758.201 494.389 758.317 493.262 758.283 492.135C757.868 486.567 758.423 482.645 758.283 477.98C758.184 474.017 758.312 467.14 759.031 463.236C759.242 464.032 759.16 467.281 759.218 467.859C759.551 471.121 759.803 484.373 759.803 485.618C759.803 485.836 759.803 486.048 759.803 486.261C759.803 487.658 759.902 489.056 759.914 490.46C759.914 491.639 759.873 492.819 759.855 493.999C759.838 495.178 759.505 504.485 759.592 505.641C759.727 507.487 760.305 509.421 760.177 511.273C760.124 512.252 759.008 515.402 759.662 516.163C760.574 517.201 761.621 515.296 761.714 514.435C761.773 513.904 761.568 513.137 761.603 512.53C761.603 512.111 761.439 511.68 761.439 511.256C761.439 510.141 761.48 509.032 761.492 507.917C761.492 506.349 761.761 496.641 761.755 495.066C761.755 494.335 761.626 493.598 761.685 492.872C761.86 490.513 761.924 480.021 762.152 477.656C762.205 477.444 762.296 477.244 762.421 477.066C762.53 477.223 762.609 477.399 762.655 477.585C762.778 478.936 762.731 488.407 762.819 489.764C762.924 491.386 763.286 492.972 763.134 494.636C763.041 495.715 762.801 504.951 762.813 506.042C762.813 507.652 762.906 509.268 762.936 510.884C762.936 511.191 762.86 511.474 762.848 511.81C762.801 512.936 762.48 514.087 762.62 515.213C762.795 516.581 763.97 517.354 764.847 515.767C764.941 515.532 764.972 515.276 764.935 515.025C764.898 514.774 764.795 514.537 764.637 514.34C764.373 513.972 764.215 513.537 764.181 513.084C764.239 511.391 764.35 509.699 764.526 508.024C764.701 506.349 765.303 496.446 765.11 494.653C765.011 493.697 764.97 492.736 764.987 491.775C764.987 490.419 765.174 488.997 765.063 487.647C764.952 486.296 765.104 485.14 765.063 483.854C765.022 482.887 766.174 464.085 766.39 463.212C767.273 467.281 766.542 473.828 766.449 477.957C766.39 480.699 766.577 483.436 766.636 486.178C766.671 487.647 766.636 489.127 766.636 490.584C766.636 491.934 766.513 493.421 767.109 494.671C767.454 495.39 767.846 495.939 768.331 494.942C768.693 494.16 768.873 493.305 768.857 492.442C768.853 492.239 768.83 492.038 768.787 491.84V491.84Z" fill="#BA2E24"/>
<path d="M766.671 445.488C766.554 444.573 766.202 443.704 765.65 442.967C765.099 442.231 764.367 441.652 763.526 441.289C761.059 440.31 759.06 441.955 758.224 444.202C757.47 446.243 757.961 448.419 758.604 450.419C759.119 452.011 760.001 453.957 761.463 454.877C763.275 456.01 764.672 453.397 765.391 451.928C766.372 449.933 766.814 447.711 766.671 445.488V445.488ZM761.731 449.9C761.381 450.118 760.609 449.705 760.276 449.569C759.644 449.368 759.09 448.972 758.692 448.437C758.523 448.168 758.42 447.863 758.39 447.546C758.361 447.229 758.406 446.91 758.522 446.614C758.937 445.983 759.797 446.29 760.434 446.614C760.858 446.834 761.216 447.167 761.467 447.576C761.718 447.986 761.854 448.457 761.86 448.938C761.866 449.204 761.989 449.734 761.731 449.9V449.9ZM765.917 448.384C765.516 448.919 764.961 449.315 764.327 449.516C763.994 449.652 763.222 450.065 762.871 449.846C762.62 449.681 762.737 449.15 762.743 448.897C762.751 448.415 762.888 447.945 763.141 447.535C763.393 447.126 763.75 446.794 764.175 446.573C764.812 446.231 765.671 445.93 766.08 446.573C766.197 446.867 766.243 447.184 766.214 447.498C766.186 447.813 766.084 448.117 765.917 448.384Z" fill="#BA2E24"/>
<path d="M673.89 501.036C672.137 503.926 667.315 506.403 664.258 507.388C660.166 508.715 659.78 507.571 656.893 504.781C654.414 502.314 652.813 499.09 652.339 495.61C651.959 493.092 651.959 490.55 651.79 488.019C651.351 481.532 650.86 475.044 651.281 468.515C651.585 464.239 650.416 460.146 651.433 455.959C652.602 451.093 654.508 445.013 660.23 442.76C662.96 441.686 663.737 441.757 666.414 442.931C670.605 444.753 672.961 446.929 674.493 450.857C675.597 453.694 674.89 456.366 675.369 459.214C675.74 461.643 675.84 464.106 675.667 466.557C675.545 468.975 675.96 471.382 676.094 473.8C676.229 476.112 675.574 478.371 675.217 480.647C674.966 482.5 675.086 484.385 675.568 486.191C676.451 490.432 675.814 496.046 674.335 500.122C674.219 500.441 674.07 500.748 673.89 501.036ZM662.866 501.85C665.251 502.746 667.735 501.938 669.004 497.91C669.864 495.316 670.452 492.637 670.757 489.919C670.974 487.642 670.319 485.525 670.541 483.283C670.869 479.91 670.769 476.542 671.032 473.169C671.324 468.468 671.36 463.754 671.137 459.049C671.038 456.059 670.418 451.972 668.01 449.878C666.163 448.256 663.077 448.138 660.815 448.817C657.617 449.778 657.892 452.562 657.436 455.304C657.296 456.553 657.296 457.813 657.436 459.061C657.576 461.19 658.021 463.325 657.88 465.466C657.629 469.052 657.629 472.656 657.296 476.312C656.974 479.81 657.489 483.295 657.296 486.775C657.15 489.175 656.746 491.977 657.132 494.371C657.588 497.592 660.16 500.841 662.866 501.85Z" fill="#BC2F25"/>
<defs>
<clipPath id="clip0">
<rect width="99.9245" height="76.306" fill="white" transform="translate(654.634 433)"/>
</clipPath>
</defs>
</svg>
