<svg xmlns="http://www.w3.org/2000/svg" xmlns:xlink="http://www.w3.org/1999/xlink" width="1366" height="617" viewBox="0 0 1366 617">
  <defs>
    <clipPath id="clip-memorixlanding_1">
      <rect width="1366" height="617"/>
    </clipPath>
  </defs>
  <g id="memorixlanding_1" data-name="memorixlanding – 1" clip-path="url(#clip-memorixlanding_1)">
    <rect width="1366" height="617" fill="#fff"/>
    <path id="Path_2" data-name="Path 2" d="M1945-2392.83s210.792-183.461,423.457-95.886,202.715,197.743,361.933,278.361,232.633,18.284,364.194,8.656,227.322,50.655,227.322,50.655v103.613H1945Z" transform="translate(-1945 2682.402)" fill="#e1f0f4"/>
    <path id="Path_1" data-name="Path 1" d="M3482.646,2159.885v240.688h675.332s-44.073-104.517-154.07-139.355-203.119,25.614-272.142-10.2-52.916-74.177-114.077-108.5S3482.646,2159.885,3482.646,2159.885Z" transform="translate(-3482.646 -1765.756)" fill="#b6dae3"/>
    <g id="Memory_Palace-02" data-name="Memory Palace-02" transform="translate(109 117.347)">
      <path id="Path_187" data-name="Path 187" d="M228.111,371.91H186.143c-23.622,12.738-28.656,27.808-28.667,34.493,0,15.4,38.567,21.9,57.335,42.514,14.809,16.268,14.425,27.4,15.63,42.107,28.735-1.911,57.7-2.786,86.422-4.706-2.386-21.653-20.443-38.759-38.273-52.5-30.4-23.419-66.115-19.4-68.015-33.939C209.432,390.994,214.988,381.209,228.111,371.91Z" transform="translate(3.512 47.808)" fill="#dfdae4"/>
      <rect id="Rectangle_59" data-name="Rectangle 59" width="69.892" height="109.115" transform="translate(34.965 310.604)" fill="#2a0b4c"/>
      <rect id="Rectangle_60" data-name="Rectangle 60" width="34.947" height="109.115" transform="translate(34.965 310.604)" fill="#6a5482"/>
      <rect id="Rectangle_61" data-name="Rectangle 61" width="69.892" height="109.115" transform="translate(34.965 310.604)" fill="none" stroke="#2a0b4c" stroke-miterlimit="10" stroke-width="1"/>
      <path id="Path_188" data-name="Path 188" d="M81.662,202.82,41.24,286.4h80.844Z" transform="translate(-11.75 25.604)" fill="#ffd724"/>
      <path id="Path_189" data-name="Path 189" d="M81.662,202.82,41.24,286.4H81.662Z" transform="translate(-11.75 25.604)" fill="#ffeb91"/>
      <path id="Path_190" data-name="Path 190" d="M81.662,202.82,41.24,286.4h80.844Z" transform="translate(-11.75 25.604)" fill="none" stroke="#2a0b4c" stroke-miterlimit="10" stroke-width="1"/>
      <path id="Path_191" data-name="Path 191" d="M78.482,333.554h0A12.738,12.738,0,0,1,91.22,346.292v30.642H65.71V346.292a12.739,12.739,0,0,1,12.772-12.75Z" transform="translate(-8.536 42.768)" fill="#279fb9"/>
      <path id="Path_192" data-name="Path 192" d="M361.953,201.771c0-18.792-15.646-34.031-34.947-34.031s-34.947,15.239-34.947,34.031Z" transform="translate(21.186 20.998)" fill="#6a5482"/>
      <path id="Path_193" data-name="Path 193" d="M361.953,201.771c0-18.792-15.646-34.031-34.947-34.031s-34.947,15.239-34.947,34.031Z" transform="translate(21.186 20.998)" fill="none" stroke="#2a0b4c" stroke-miterlimit="10" stroke-width="1"/>
      <rect id="Rectangle_62" data-name="Rectangle 62" width="69.892" height="191.815" transform="translate(313.246 227.893)" fill="#ffd724"/>
      <rect id="Rectangle_63" data-name="Rectangle 63" width="34.947" height="191.815" transform="translate(313.246 227.893)" fill="#ffeb91"/>
      <rect id="Rectangle_64" data-name="Rectangle 64" width="69.892" height="191.815" transform="translate(313.246 227.893)" fill="none" stroke="#2a0b4c" stroke-miterlimit="10" stroke-width="1"/>
      <ellipse id="Ellipse_76" data-name="Ellipse 76" cx="7.84" cy="7.885" rx="7.84" ry="7.885" transform="translate(340.353 274.672)" fill="#fff"/>
      <path id="Path_194" data-name="Path 194" d="M330.8,251.589a7.919,7.919,0,0,0-7.853-7.919v15.771A7.919,7.919,0,0,0,330.8,251.589Z" transform="translate(25.242 30.968)" fill="#e6e6e6"/>
      <ellipse id="Ellipse_77" data-name="Ellipse 77" cx="7.84" cy="7.885" rx="7.84" ry="7.885" transform="translate(340.353 274.672)" fill="none" stroke="#2a0b4c" stroke-miterlimit="10" stroke-width="1"/>
      <ellipse id="Ellipse_78" data-name="Ellipse 78" cx="7.84" cy="7.885" rx="7.84" ry="7.885" transform="translate(340.353 238.901)" fill="#fff"/>
      <path id="Path_195" data-name="Path 195" d="M330.8,219.969a7.919,7.919,0,0,0-7.853-7.919v15.785A7.919,7.919,0,0,0,330.8,219.969Z" transform="translate(25.242 26.817)" fill="#f4f4f4"/>
      <ellipse id="Ellipse_79" data-name="Ellipse 79" cx="7.84" cy="7.885" rx="7.84" ry="7.885" transform="translate(340.353 238.901)" fill="none" stroke="#2a0b4c" stroke-miterlimit="10" stroke-width="1"/>
      <ellipse id="Ellipse_80" data-name="Ellipse 80" cx="7.84" cy="7.885" rx="7.84" ry="7.885" transform="translate(340.353 310.433)" fill="#fff"/>
      <path id="Path_196" data-name="Path 196" d="M330.8,283.2a7.919,7.919,0,0,0-7.853-7.919v15.759A7.919,7.919,0,0,0,330.8,283.2Z" transform="translate(25.242 35.121)" fill="#e6e6e6"/>
      <ellipse id="Ellipse_81" data-name="Ellipse 81" cx="7.84" cy="7.885" rx="7.84" ry="7.885" transform="translate(340.353 310.433)" fill="none" stroke="#2a0b4c" stroke-miterlimit="10" stroke-width="1"/>
      <ellipse id="Ellipse_82" data-name="Ellipse 82" cx="7.84" cy="7.885" rx="7.84" ry="7.885" transform="translate(340.353 346.205)" fill="#fff"/>
      <path id="Path_197" data-name="Path 197" d="M330.8,314.819a7.919,7.919,0,0,0-7.853-7.919v15.759A7.919,7.919,0,0,0,330.8,314.819Z" transform="translate(25.242 39.271)" fill="#e6e6e6"/>
      <ellipse id="Ellipse_83" data-name="Ellipse 83" cx="7.84" cy="7.885" rx="7.84" ry="7.885" transform="translate(340.353 346.205)" fill="none" stroke="#2a0b4c" stroke-miterlimit="10" stroke-width="1"/>
      <path id="Path_198" data-name="Path 198" d="M267.685,207.677v20.692H150.3V207.677h14.346V154.414h24.312V185.52l15.33,15.33V88.73h49.986V207.677Z" transform="translate(2.571 10.621)" fill="#177382"/>
      <rect id="Rectangle_65" data-name="Rectangle 65" width="106.603" height="160.647" transform="translate(211.462 259.071)" fill="#279fb9"/>
      <rect id="Rectangle_66" data-name="Rectangle 66" width="106.603" height="160.647" transform="translate(104.859 259.071)" fill="#68bcce"/>
      <rect id="Rectangle_67" data-name="Rectangle 67" width="213.208" height="160.647" transform="translate(104.859 259.071)" fill="none" stroke="#2a0b4c" stroke-miterlimit="10" stroke-width="1"/>
      <path id="Path_199" data-name="Path 199" d="M203.2,253h0a9.559,9.559,0,0,1,9.559,9.559v22.491H193.64v-22.5a9.559,9.559,0,0,1,9.559-9.559Z" transform="translate(8.263 32.193)" fill="#fff"/>
      <path id="Path_200" data-name="Path 200" d="M211.649,285.04V262.549a9.559,9.559,0,0,0-9.559-9.559v32.05Z" transform="translate(9.372 32.192)" fill="#e6e6e6"/>
      <path id="Path_201" data-name="Path 201" d="M203.2,253h0a9.559,9.559,0,0,1,9.559,9.559v22.491H193.64v-22.5a9.559,9.559,0,0,1,9.559-9.559Z" transform="translate(8.263 32.193)" fill="none" stroke="#2a0b4c" stroke-miterlimit="10" stroke-width="1"/>
      <path id="Path_202" data-name="Path 202" d="M263.2,253h0a9.559,9.559,0,0,1,9.559,9.559V285.05H253.64v-22.5A9.559,9.559,0,0,1,263.2,253Z" transform="translate(16.141 32.194)" fill="#fff"/>
      <path id="Path_203" data-name="Path 203" d="M271.649,285.04V262.549a9.559,9.559,0,0,0-9.559-9.559v32.05Z" transform="translate(17.251 32.192)" fill="#e6e6e6"/>
      <path id="Path_204" data-name="Path 204" d="M263.2,253h0a9.559,9.559,0,0,1,9.559,9.559V285.05H253.64v-22.5A9.559,9.559,0,0,1,263.2,253Z" transform="translate(16.141 32.194)" fill="none" stroke="#2a0b4c" stroke-miterlimit="10" stroke-width="1"/>
      <path id="Path_205" data-name="Path 205" d="M143.2,253h0a9.559,9.559,0,0,1,9.559,9.559v22.491H133.64v-22.5a9.559,9.559,0,0,1,9.559-9.559Z" transform="translate(0.384 32.193)" fill="#fff"/>
      <path id="Path_206" data-name="Path 206" d="M151.649,285.04V262.549a9.559,9.559,0,0,0-9.559-9.559v32.05Z" transform="translate(1.493 32.192)" fill="#e6e6e6"/>
      <path id="Path_207" data-name="Path 207" d="M143.2,253h0a9.559,9.559,0,0,1,9.559,9.559v22.491H133.64v-22.5a9.559,9.559,0,0,1,9.559-9.559Z" transform="translate(0.384 32.193)" fill="none" stroke="#2a0b4c" stroke-miterlimit="10" stroke-width="1"/>
      <path id="Path_208" data-name="Path 208" d="M78.113,288.46h0a9.559,9.559,0,0,1,9.559,9.559V320.51H68.52V298.019a9.559,9.559,0,0,1,9.595-9.559Z" transform="translate(-8.168 36.85)" fill="#fff"/>
      <path id="Path_209" data-name="Path 209" d="M86.525,320.51V298.019A9.559,9.559,0,0,0,77,288.46v32.05Z" transform="translate(-7.054 36.85)" fill="#e6e6e6"/>
      <path id="Path_210" data-name="Path 210" d="M78.113,288.46h0a9.559,9.559,0,0,1,9.559,9.559V320.51H68.52V298.019a9.559,9.559,0,0,1,9.595-9.559Z" transform="translate(-8.168 36.85)" fill="none" stroke="#2a0b4c" stroke-miterlimit="10" stroke-width="1"/>
      <path id="Path_211" data-name="Path 211" d="M263.2,314h0a9.559,9.559,0,0,1,9.559,9.559V346.05H253.64v-22.5A9.559,9.559,0,0,1,263.2,314Z" transform="translate(16.141 40.204)" fill="#fff"/>
      <path id="Path_212" data-name="Path 212" d="M271.649,346.04V323.549a9.559,9.559,0,0,0-9.559-9.559v32.05Z" transform="translate(17.251 40.202)" fill="#e6e6e6"/>
      <path id="Path_213" data-name="Path 213" d="M263.2,314h0a9.559,9.559,0,0,1,9.559,9.559V346.05H253.64v-22.5A9.559,9.559,0,0,1,263.2,314Z" transform="translate(16.141 40.204)" fill="none" stroke="#2a0b4c" stroke-miterlimit="10" stroke-width="1"/>
      <path id="Path_214" data-name="Path 214" d="M143.2,314h0a9.559,9.559,0,0,1,9.559,9.559v22.491H133.64v-22.5a9.559,9.559,0,0,1,9.559-9.559Z" transform="translate(0.384 40.204)" fill="#fff"/>
      <path id="Path_215" data-name="Path 215" d="M151.649,346.04V323.549a9.559,9.559,0,0,0-9.559-9.559v32.05Z" transform="translate(1.493 40.202)" fill="#e6e6e6"/>
      <path id="Path_216" data-name="Path 216" d="M143.2,314h0a9.559,9.559,0,0,1,9.559,9.559v22.491H133.64v-22.5a9.559,9.559,0,0,1,9.559-9.559Z" transform="translate(0.384 40.204)" fill="none" stroke="#2a0b4c" stroke-miterlimit="10" stroke-width="1"/>
      <rect id="Rectangle_68" data-name="Rectangle 68" width="232.373" height="5.68" transform="translate(95.276 253.087)" fill="#ffd724"/>
      <rect id="Rectangle_69" data-name="Rectangle 69" width="232.373" height="5.68" transform="translate(95.276 253.087)" fill="none" stroke="#2a0b4c" stroke-miterlimit="10" stroke-width="1"/>
      <rect id="Rectangle_70" data-name="Rectangle 70" width="81.703" height="5.68" transform="translate(307.341 222.767)" fill="#279fb9"/>
      <rect id="Rectangle_71" data-name="Rectangle 71" width="81.703" height="5.68" transform="translate(307.341 222.767)" fill="none" stroke="#2a0b4c" stroke-miterlimit="10" stroke-width="1"/>
      <line id="Line_92" data-name="Line 92" y1="70.968" transform="translate(178.948 74.905)" fill="none" stroke="#2a0b4c" stroke-miterlimit="10" stroke-width="1"/>
      <path id="Path_217" data-name="Path 217" d="M175.3,126.98,158.52,150.523h33.551Z" transform="translate(3.651 15.646)" fill="#2a0b4c"/>
      <circle id="Ellipse_84" data-name="Ellipse 84" cx="3.428" cy="3.428" r="3.428" transform="translate(175.52 71.477)" fill="#2a0b4c"/>
      <path id="Path_218" data-name="Path 218" d="M185.613,77.234,173.35,70.14V84.316Z" transform="translate(5.598 8.182)" fill="#ffd724"/>
      <path id="Path_219" data-name="Path 219" d="M185.613,77.234,173.35,70.14V84.316Z" transform="translate(5.598 8.182)" fill="none" stroke="#2a0b4c" stroke-miterlimit="10" stroke-width="1"/>
      <path id="Path_220" data-name="Path 220" d="M267.685,207.677v20.692H150.3V207.677h14.346V154.414h24.312V185.52l15.33,15.33V88.73h49.986V207.677Z" transform="translate(2.571 10.621)" fill="none" stroke="#2a0b4c" stroke-miterlimit="10" stroke-width="1"/>
      <rect id="Rectangle_72" data-name="Rectangle 72" width="213.208" height="17.614" transform="translate(104.859 235.484)" fill="#279fb9"/>
      <rect id="Rectangle_73" data-name="Rectangle 73" width="213.208" height="17.614" transform="translate(104.859 235.484)" fill="none" stroke="#2a0b4c" stroke-miterlimit="10" stroke-width="1"/>
      <line id="Line_93" data-name="Line 93" y2="17.603" transform="translate(113.898 235.484)" fill="none" stroke="#2a0b4c" stroke-miterlimit="10" stroke-width="1"/>
      <line id="Line_94" data-name="Line 94" y2="17.603" transform="translate(124.746 235.484)" fill="none" stroke="#2a0b4c" stroke-miterlimit="10" stroke-width="1"/>
      <line id="Line_95" data-name="Line 95" y2="17.603" transform="translate(135.585 235.484)" fill="none" stroke="#2a0b4c" stroke-miterlimit="10" stroke-width="1"/>
      <line id="Line_96" data-name="Line 96" y2="17.603" transform="translate(146.423 235.484)" fill="none" stroke="#2a0b4c" stroke-miterlimit="10" stroke-width="1"/>
      <line id="Line_97" data-name="Line 97" y2="17.603" transform="translate(157.26 235.484)" fill="none" stroke="#2a0b4c" stroke-miterlimit="10" stroke-width="1"/>
      <line id="Line_98" data-name="Line 98" y2="17.603" transform="translate(168.099 235.484)" fill="none" stroke="#2a0b4c" stroke-miterlimit="10" stroke-width="1"/>
      <line id="Line_99" data-name="Line 99" y2="17.603" transform="translate(178.948 235.484)" fill="none" stroke="#2a0b4c" stroke-miterlimit="10" stroke-width="1"/>
      <line id="Line_100" data-name="Line 100" y2="17.603" transform="translate(189.787 235.484)" fill="none" stroke="#2a0b4c" stroke-miterlimit="10" stroke-width="1"/>
      <line id="Line_101" data-name="Line 101" y2="17.603" transform="translate(200.624 235.484)" fill="none" stroke="#2a0b4c" stroke-miterlimit="10" stroke-width="1"/>
      <line id="Line_102" data-name="Line 102" y2="17.603" transform="translate(211.462 235.484)" fill="none" stroke="#2a0b4c" stroke-miterlimit="10" stroke-width="1"/>
      <line id="Line_103" data-name="Line 103" y2="17.603" transform="translate(222.301 235.484)" fill="none" stroke="#2a0b4c" stroke-miterlimit="10" stroke-width="1"/>
      <line id="Line_104" data-name="Line 104" y2="17.603" transform="translate(233.149 235.484)" fill="none" stroke="#2a0b4c" stroke-miterlimit="10" stroke-width="1"/>
      <line id="Line_105" data-name="Line 105" y2="17.603" transform="translate(243.987 235.484)" fill="none" stroke="#2a0b4c" stroke-miterlimit="10" stroke-width="1"/>
      <line id="Line_106" data-name="Line 106" y2="17.603" transform="translate(254.826 235.484)" fill="none" stroke="#2a0b4c" stroke-miterlimit="10" stroke-width="1"/>
      <line id="Line_107" data-name="Line 107" y2="17.603" transform="translate(265.663 235.484)" fill="none" stroke="#2a0b4c" stroke-miterlimit="10" stroke-width="1"/>
      <line id="Line_108" data-name="Line 108" y2="17.603" transform="translate(276.501 235.484)" fill="none" stroke="#2a0b4c" stroke-miterlimit="10" stroke-width="1"/>
      <line id="Line_109" data-name="Line 109" y2="17.603" transform="translate(287.351 235.484)" fill="none" stroke="#2a0b4c" stroke-miterlimit="10" stroke-width="1"/>
      <line id="Line_110" data-name="Line 110" y2="17.603" transform="translate(298.188 235.484)" fill="none" stroke="#2a0b4c" stroke-miterlimit="10" stroke-width="1"/>
      <line id="Line_111" data-name="Line 111" y2="17.603" transform="translate(309.027 235.484)" fill="none" stroke="#2a0b4c" stroke-miterlimit="10" stroke-width="1"/>
      <rect id="Rectangle_74" data-name="Rectangle 74" width="43.759" height="41.553" transform="translate(109.111 193.93)" fill="#177382"/>
      <rect id="Rectangle_75" data-name="Rectangle 75" width="43.759" height="41.553" transform="translate(109.111 193.93)" fill="none" stroke="#2a0b4c" stroke-miterlimit="10" stroke-width="1"/>
      <ellipse id="Ellipse_85" data-name="Ellipse 85" cx="6.822" cy="10.68" rx="6.822" ry="10.68" transform="translate(124.17 204.022)" fill="#fff"/>
      <path id="Path_221" data-name="Path 221" d="M137.788,191.929c0-5.895-3.055-10.669-6.788-10.669v21.349C134.722,202.609,137.788,197.834,137.788,191.929Z" transform="translate(0.037 22.773)" fill="#e6e6e6"/>
      <ellipse id="Ellipse_86" data-name="Ellipse 86" cx="6.822" cy="10.68" rx="6.822" ry="10.68" transform="translate(124.17 204.022)" fill="none" stroke="#2a0b4c" stroke-miterlimit="10" stroke-width="1"/>
      <line id="Line_112" data-name="Line 112" y1="48.183" transform="translate(130.992 124.049)" fill="none" stroke="#2a0b4c" stroke-miterlimit="10" stroke-width="1"/>
      <path id="Path_222" data-name="Path 222" d="M134.067,149.75,107.31,177.795h53.53Z" transform="translate(-3.074 18.635)" fill="#2a0b4c"/>
      <circle id="Ellipse_87" data-name="Ellipse 87" cx="3.428" cy="3.428" r="3.428" transform="translate(127.564 120.621)" fill="#2a0b4c"/>
      <path id="Path_223" data-name="Path 223" d="M143.235,120.672,130.96,113.59v14.165Z" transform="translate(0.032 13.887)" fill="#ffd724"/>
      <path id="Path_224" data-name="Path 224" d="M143.235,120.672,130.96,113.59v14.165Z" transform="translate(0.032 13.887)" fill="none" stroke="#2a0b4c" stroke-miterlimit="10" stroke-width="1"/>
      <rect id="Rectangle_76" data-name="Rectangle 76" width="43.759" height="41.553" transform="translate(270.267 193.93)" fill="#177382"/>
      <rect id="Rectangle_77" data-name="Rectangle 77" width="43.759" height="41.553" transform="translate(270.267 193.93)" fill="none" stroke="#2a0b4c" stroke-miterlimit="10" stroke-width="1"/>
      <ellipse id="Ellipse_88" data-name="Ellipse 88" cx="6.822" cy="10.68" rx="6.822" ry="10.68" transform="translate(285.325 204.022)" fill="#fff"/>
      <path id="Path_225" data-name="Path 225" d="M280.218,191.929c0-5.895-3.043-10.669-6.788-10.669v21.349C277.175,202.609,280.218,197.834,280.218,191.929Z" transform="translate(18.74 22.773)" fill="#e6e6e6"/>
      <ellipse id="Ellipse_89" data-name="Ellipse 89" cx="6.822" cy="10.68" rx="6.822" ry="10.68" transform="translate(285.325 204.022)" fill="none" stroke="#2a0b4c" stroke-miterlimit="10" stroke-width="1"/>
      <ellipse id="Ellipse_90" data-name="Ellipse 90" cx="6.822" cy="10.68" rx="6.822" ry="10.68" transform="translate(225.026 160.364)" fill="#fff"/>
      <path id="Path_226" data-name="Path 226" d="M226.928,153.339c0-5.895-3.055-10.678-6.788-10.678v21.356C223.873,164.019,226.928,159.234,226.928,153.339Z" transform="translate(11.742 17.704)" fill="#e6e6e6"/>
      <ellipse id="Ellipse_91" data-name="Ellipse 91" cx="6.822" cy="10.68" rx="6.822" ry="10.68" transform="translate(225.026 160.364)" fill="none" stroke="#2a0b4c" stroke-miterlimit="10" stroke-width="1"/>
      <ellipse id="Ellipse_92" data-name="Ellipse 92" cx="6.822" cy="10.68" rx="6.822" ry="10.68" transform="translate(225.026 196.431)" fill="#fff"/>
      <path id="Path_227" data-name="Path 227" d="M226.928,185.239c0-5.895-3.055-10.678-6.788-10.678v21.356C223.873,195.9,226.928,191.111,226.928,185.239Z" transform="translate(11.742 21.893)" fill="#e6e6e6"/>
      <ellipse id="Ellipse_93" data-name="Ellipse 93" cx="6.822" cy="10.68" rx="6.822" ry="10.68" transform="translate(225.026 196.431)" fill="none" stroke="#2a0b4c" stroke-miterlimit="10" stroke-width="1"/>
      <ellipse id="Ellipse_94" data-name="Ellipse 94" cx="6.822" cy="10.68" rx="6.822" ry="10.68" transform="translate(225.026 111.015)" fill="#fff"/>
      <path id="Path_228" data-name="Path 228" d="M226.928,109.719c0-5.895-3.055-10.678-6.788-10.678V120.4C223.873,120.4,226.928,115.614,226.928,109.719Z" transform="translate(11.742 11.976)" fill="#e6e6e6"/>
      <ellipse id="Ellipse_95" data-name="Ellipse 95" cx="6.822" cy="10.68" rx="6.822" ry="10.68" transform="translate(225.026 111.015)" fill="none" stroke="#2a0b4c" stroke-miterlimit="10" stroke-width="1"/>
      <line id="Line_113" data-name="Line 113" y1="48.183" transform="translate(292.148 124.049)" fill="none" stroke="#2a0b4c" stroke-miterlimit="10" stroke-width="1"/>
      <path id="Path_229" data-name="Path 229" d="M276.519,149.75l-26.773,28.045h53.522Z" transform="translate(15.628 18.635)" fill="#2a0b4c"/>
      <circle id="Ellipse_96" data-name="Ellipse 96" cx="3.428" cy="3.428" r="3.428" transform="translate(288.72 120.621)" fill="#2a0b4c"/>
      <path id="Path_230" data-name="Path 230" d="M285.673,120.672,273.41,113.59v14.165Z" transform="translate(18.738 13.887)" fill="#ffd724"/>
      <path id="Path_231" data-name="Path 231" d="M285.673,120.672,273.41,113.59v14.165Z" transform="translate(18.738 13.887)" fill="none" stroke="#2a0b4c" stroke-miterlimit="10" stroke-width="1"/>
      <line id="Line_114" data-name="Line 114" y1="48.149" transform="translate(348.148 174.618)" fill="none" stroke="#2a0b4c" stroke-miterlimit="10" stroke-width="1"/>
      <circle id="Ellipse_97" data-name="Ellipse 97" cx="3.428" cy="3.428" r="3.428" transform="translate(344.72 171.191)" fill="#2a0b4c"/>
      <line id="Line_115" data-name="Line 115" y1="71.624" transform="translate(231.848 3.428)" fill="none" stroke="#2a0b4c" stroke-miterlimit="10" stroke-width="1"/>
      <path id="Path_232" data-name="Path 232" d="M223.639,62.33,193.23,94.21h60.831Z" transform="translate(8.208 7.155)" fill="#2a0b4c"/>
      <circle id="Ellipse_98" data-name="Ellipse 98" cx="3.428" cy="3.428" r="3.428" transform="translate(228.42 0)" fill="#2a0b4c"/>
      <rect id="Rectangle_78" data-name="Rectangle 78" width="56.521" height="8.688" transform="translate(203.588 142.025)" fill="#ffd724"/>
      <rect id="Rectangle_79" data-name="Rectangle 79" width="56.521" height="8.688" transform="translate(203.588 142.025)" fill="none" stroke="#2a0b4c" stroke-miterlimit="10" stroke-width="1"/>
      <path id="Path_233" data-name="Path 233" d="M220.11,7a85.529,85.529,0,0,1,26.79,6.788c19.764,9.05,20.6,19.662,33.939,22.333,16.714,3.394,23.987-11.732,43.047-10.181,13.154,1.042,23.192,9.285,29.325,15.6-6.381-2.67-16.37-7.026-28.2-5.782-21.076,2.081-26.96,18.758-45.162,16.494-10.1-1.278-16.969-8.2-35.637-19.142-8.089-4.729-18.916-3.971-24.1-4.525Z" transform="translate(11.738 -0.11)" fill="#279fb9"/>
      <path id="Path_234" data-name="Path 234" d="M279.844,51.086c18.106,2.263,24.086-14.357,45.117-16.585,11.834-1.238,21.821,3.111,28.2,5.782h-.056c-9.285-6.551-22.706-13.773-34.046-10.725-19.889,5.232-23,14.74-39.243,12.568-17.06-2.263-22.252-18.509-45.671-24.513a56.284,56.284,0,0,0-14.039-1.73V27.41c5.181.509,16.008-.249,24.1,4.525C262.884,42.827,269.771,49.75,279.844,51.086Z" transform="translate(11.738 1.057)" fill="#ffd724"/>
      <path id="Path_235" data-name="Path 235" d="M220.11,7a85.529,85.529,0,0,1,26.79,6.788c19.764,9.05,20.6,19.662,33.939,22.333,16.714,3.394,23.987-11.732,43.047-10.181,13.154,1.042,23.192,9.285,29.325,15.6-6.381-2.67-16.37-7.026-28.2-5.782-21.076,2.081-26.96,18.758-45.162,16.494-10.1-1.278-16.969-8.2-35.637-19.142-8.089-4.729-18.916-3.971-24.1-4.525Z" transform="translate(11.738 -0.11)" fill="none" stroke="#2a0b4c" stroke-miterlimit="10" stroke-width="1"/>
      <path id="Path_236" data-name="Path 236" d="M279.844,51.086c18.106,2.263,24.086-14.357,45.117-16.585,11.834-1.238,21.821,3.111,28.2,5.782h-.056c-9.285-6.551-22.706-13.773-34.046-10.725-19.889,5.232-23,14.74-39.243,12.568-17.06-2.263-22.252-18.509-45.671-24.513a56.284,56.284,0,0,0-14.039-1.73V27.41c5.181.509,16.008-.249,24.1,4.525C262.884,42.827,269.771,49.75,279.844,51.086Z" transform="translate(11.738 1.057)" fill="none" stroke="#2a0b4c" stroke-miterlimit="10" stroke-width="1"/>
      <path id="Path_237" data-name="Path 237" d="M323,167.74c2.919.588,10.092,2.9,17.642,11.675a36.1,36.1,0,0,1,8.6,21.711" transform="translate(25.25 20.998)" fill="none" stroke="#2a0b4c" stroke-miterlimit="10" stroke-width="1"/>
      <path id="Path_238" data-name="Path 238" d="M323,167.74c2.806,2.081,6.035,6.935,9.572,13.575a41.362,41.362,0,0,1,4.785,20.477" transform="translate(25.25 20.998)" fill="none" stroke="#2a0b4c" stroke-miterlimit="10" stroke-width="1"/>
      <path id="Path_239" data-name="Path 239" d="M325.957,167.74c-2.919.588-10.092,2.9-17.642,11.675a35.954,35.954,0,0,0-8.6,21.711" transform="translate(22.191 20.998)" fill="none" stroke="#2a0b4c" stroke-miterlimit="10" stroke-width="1"/>
      <path id="Path_240" data-name="Path 240" d="M324.581,167.74c-2.806,2.081-6.018,6.935-9.572,13.575a41.439,41.439,0,0,0-4.774,20.477" transform="translate(23.573 20.998)" fill="none" stroke="#2a0b4c" stroke-miterlimit="10" stroke-width="1"/>
      <line id="Line_116" data-name="Line 116" y1="83.582" transform="translate(69.912 228.424)" fill="none" stroke="#2a0b4c" stroke-miterlimit="10" stroke-width="1"/>
      <line id="Line_117" data-name="Line 117" x2="19.142" y2="82.27" transform="translate(69.912 229.736)" fill="none" stroke="#2a0b4c" stroke-miterlimit="10" stroke-width="1"/>
      <line id="Line_118" data-name="Line 118" x1="19.131" y2="82.27" transform="translate(50.781 229.736)" fill="none" stroke="#2a0b4c" stroke-miterlimit="10" stroke-width="1"/>
      <circle id="Ellipse_99" data-name="Ellipse 99" cx="5.373" cy="5.373" r="5.373" transform="translate(64.539 223.232)" fill="#177382" stroke="#2a0b4c" stroke-miterlimit="10" stroke-width="1"/>
      <path id="Path_241" data-name="Path 241" d="M78.478,333.55A12.75,12.75,0,0,0,65.74,346.3v30.642H78.478Z" transform="translate(-8.532 42.77)" fill="#68bcce"/>
      <path id="Path_242" data-name="Path 242" d="M78.482,333.554h0A12.738,12.738,0,0,1,91.22,346.292v30.642H65.71V346.292a12.739,12.739,0,0,1,12.772-12.75Z" transform="translate(-8.536 42.768)" fill="none" stroke="#2a0b4c" stroke-miterlimit="10" stroke-width="1"/>
      <path id="Path_243" data-name="Path 243" d="M204.511,309.08h0a20.873,20.873,0,0,1,20.873,20.873v50.207H183.65V329.953a20.873,20.873,0,0,1,20.861-20.873Z" transform="translate(6.951 39.558)" fill="#2a0b4c"/>
      <path id="Path_244" data-name="Path 244" d="M204.511,309.08a20.861,20.861,0,0,0-20.861,20.873v50.207h20.861Z" transform="translate(6.951 39.558)" fill="#6a5482"/>
      <path id="Path_245" data-name="Path 245" d="M204.511,309.08h0a20.873,20.873,0,0,1,20.873,20.873v50.207H183.65V329.953a20.873,20.873,0,0,1,20.861-20.873Z" transform="translate(6.951 39.558)" fill="none" stroke="#2a0b4c" stroke-miterlimit="10" stroke-width="1"/>
      <path id="Path_246" data-name="Path 246" d="M324.485,333.554h0a12.738,12.738,0,0,1,12.74,12.74v30.64H311.69V346.292a12.738,12.738,0,0,1,12.8-12.75Z" transform="translate(23.765 42.766)" fill="#2a0b4c"/>
      <path id="Path_247" data-name="Path 247" d="M324.478,333.55A12.75,12.75,0,0,0,311.74,346.3v30.642h12.738Z" transform="translate(23.771 42.77)" fill="#6a5482"/>
      <path id="Path_248" data-name="Path 248" d="M324.485,333.554h0a12.738,12.738,0,0,1,12.74,12.74v30.64H311.69V346.292a12.738,12.738,0,0,1,12.8-12.75Z" transform="translate(23.765 42.766)" fill="none" stroke="#2a0b4c" stroke-miterlimit="10" stroke-width="1"/>
      <path id="Path_249" data-name="Path 249" d="M296.513,109.891h90.212a19.414,19.414,0,0,0-31.5-20.364,20.024,20.024,0,0,0-38.047,1.312,17.407,17.407,0,0,0-15.42,3.609C294.951,100.57,296.422,109.428,296.513,109.891Z" transform="translate(34.861 6.375)" fill="#dfdae4" stroke="#2a0b4c" stroke-miterlimit="10" stroke-width="1"/>
      <path id="Path_250" data-name="Path 250" d="M447.609,139.117H315.68a21.619,21.619,0,0,1,32.05-20.793,40.3,40.3,0,0,1,77.721,4.4,17.411,17.411,0,0,1,14.7,1.7C447.784,129.511,447.626,138.619,447.609,139.117Z" transform="translate(34.77 13.497)" fill="#dfdae4" stroke="#2a0b4c" stroke-miterlimit="10" stroke-width="1"/>
      <path id="Path_251" data-name="Path 251" d="M113.565,168.627H27.653A18.486,18.486,0,0,1,57.644,149.26a19.074,19.074,0,0,1,36.2,1.238,16.8,16.8,0,0,1,14.7,3.394C115.048,159.735,113.644,168.174,113.565,168.627Z" transform="translate(-26.766 16.932)" fill="#dfdae4" stroke="#2a0b4c" stroke-miterlimit="10" stroke-width="1"/>
      <path id="Path_252" data-name="Path 252" d="M187.089,371.91c-25.761,13.677-30.013,28.385-29.606,34.493,1.323,19.654,49.485,21.28,66.918,56a60.731,60.731,0,0,1,6.076,28.63l86.4-4.751c-1.548-19.843-21.325-42.248-44.54-56.566-30.365-18.8-59.394-16.438-61.758-29.787-.86-4.876-.565-16.268,18.236-27.966" transform="translate(3.512 47.808)" fill="none" stroke="#2a0b4c" stroke-miterlimit="10" stroke-width="1"/>
    </g>
    <g id="Memorix_Logo" data-name="Memorix Logo" transform="translate(869.535 233.576)">
      <g id="Group_685" data-name="Group 685">
        <path id="Path_237-2" data-name="Path 237" d="M126.564,368.813l14.543,38.273,14.509-38.273h11.33v49.932h-8.727V402.283l.866-22.016L144.2,418.738h-6.272l-14.849-38.444.866,21.983v16.462H115.2V368.813Z" transform="translate(-115.2 -367.521)" fill="#279fb9"/>
        <path id="Path_238-2" data-name="Path 238" d="M193.9,420.122a17.406,17.406,0,0,1-12.968-5.037,18.277,18.277,0,0,1-4.97-13.418v-1.039a22.5,22.5,0,0,1,2.164-10.025,16.475,16.475,0,0,1,6.074-6.873,16.068,16.068,0,0,1,8.727-2.459,14.706,14.706,0,0,1,11.825,4.882,20.646,20.646,0,0,1,4.171,13.816v3.395H184.45a11.249,11.249,0,0,0,3.1,7.341,9.305,9.305,0,0,0,6.839,2.7,11.4,11.4,0,0,0,9.42-4.675l4.536,4.329a15.139,15.139,0,0,1-6.007,5.21A18.808,18.808,0,0,1,193.9,420.122Zm-1-32.1a7.087,7.087,0,0,0-5.593,2.423,12.556,12.556,0,0,0-2.718,6.749h16.032v-.623a10.221,10.221,0,0,0-2.25-6.387,7.03,7.03,0,0,0-5.472-2.162Z" transform="translate(-116.126 -368.208)" fill="#279fb9"/>
        <path id="Path_239-2" data-name="Path 239" d="M223.964,381.977l.243,3.912a13.479,13.479,0,0,1,10.8-4.605,10.349,10.349,0,0,1,10.284,5.748,13.29,13.29,0,0,1,11.5-5.748,11.681,11.681,0,0,1,9.224,3.426,15.094,15.094,0,0,1,3.1,10.111v24.619H260.7V395.064a7.456,7.456,0,0,0-1.559-5.228,6.821,6.821,0,0,0-5.159-1.66,7,7,0,0,0-4.693,1.541,8.124,8.124,0,0,0-2.545,4.034l.034,25.693H238.36V394.788a6,6,0,0,0-6.749-6.614,7.406,7.406,0,0,0-7.168,4.121v27.146h-8.414V381.977Z" transform="translate(-116.719 -368.219)" fill="#279fb9"/>
        <g id="Group_682" data-name="Group 682" transform="translate(209.113 13.062)">
          <path id="Path_240-2" data-name="Path 240" d="M352.106,389.641a20.777,20.777,0,0,0-3.426-.277,7.717,7.717,0,0,0-7.791,4.432v25.623h-8.414V381.953h8.034l.207,4.189a9.481,9.481,0,0,1,8.448-4.882,7.874,7.874,0,0,1,2.979.484Z" transform="translate(-332.474 -381.256)" fill="#279fb9"/>
        </g>
        <g id="Group_683" data-name="Group 683" transform="translate(234.063 0)">
          <path id="Path_241-2" data-name="Path 241" d="M366.751,418.732h-8.414V381.61h8.414Zm-8.934-46.755a4.4,4.4,0,0,1,1.228-3.19,4.666,4.666,0,0,1,3.514-1.269,4.725,4.725,0,0,1,3.532,1.269,4.367,4.367,0,0,1,1.246,3.19,4.274,4.274,0,0,1-1.246,3.15,4.767,4.767,0,0,1-3.532,1.251,4.708,4.708,0,0,1-3.514-1.251,4.3,4.3,0,0,1-1.228-3.15Z" transform="translate(-357.815 -367.508)" fill="#279fb9"/>
        </g>
        <g id="Group_684" data-name="Group 684" transform="translate(248.925 13.758)">
          <path id="Path_242-2" data-name="Path 242" d="M389.587,394.288l7.132-12.327h9.348L394.6,400.409l11.843,19.011h-9.28l-7.478-12.812-7.444,12.813H372.9l11.843-19.011-11.427-18.448h9.28Z" transform="translate(-372.9 -381.961)" fill="#279fb9"/>
        </g>
      </g>
      <g id="Group_686" data-name="Group 686" transform="translate(158.87 4.418)">
        <path id="Path_243-2" data-name="Path 243" d="M9.609,16a18.449,18.449,0,0,1,.826-1.753A20.185,20.185,0,0,1,28.613,4.079,19.949,19.949,0,0,1,47.246,15.272c.1.241.2.481.286.724H39.32l-.014.043a1.282,1.282,0,0,0-1.3.936L36.768,20.8l-1.246-4.851-.781-3.033a1.334,1.334,0,0,0-2.661.072l-.569,2.88-1.35,6.749-1.836-7.438L26.779,8.916a1.334,1.334,0,0,0-2.664.061l-1.19,6.038-.7,3.57L21.1,24.327l-1.125-4.556L19.312,17.1a1.285,1.285,0,0,0-1.35-1.1H9.609Zm38.708,2.661c.054.268.106.576.148.92a20.358,20.358,0,0,1-4.646,16.1c-2.448,3.863-2.331,10.8-1.145,15.139l.014.054h-20.2l-.425-1.89c-.4-1.971-1.478-2.805-3.987-2.805H12.426A3.01,3.01,0,0,1,9.474,43.2v-.184c.018-2.639.04-7.4.047-9.379l-2.889-.025h-.27A1.739,1.739,0,0,1,4.756,31.9a1.678,1.678,0,0,1,.191-.814c.7-1.26,2.2-3.843,3.244-5.512,1.19-1.91,1.141-2.2.675-3.66a6.909,6.909,0,0,1-.061-3.26h8.083l.427,1.737,2.612,10.527a1.334,1.334,0,0,0,2.664-.061l2.32-11.778.7-3.57.067.283,2.623,10.632.675,2.765a1.334,1.334,0,0,0,2.664-.058l.549-2.765,1.39-7.01,1.705,6.63c.412,1.611,2.11,1.66,2.623.076l2.4-7.424Z" transform="translate(-4.756 -4.066)" fill="#279fb9"/>
      </g>
    </g>
  </g>
</svg>
