<svg xmlns="http://www.w3.org/2000/svg" xmlns:xlink="http://www.w3.org/1999/xlink" width="666" height="798" viewBox="0 0 666 798">
  <defs>
    <clipPath id="clip-_3._when_do_you_study_1">
      <rect width="666" height="798"/>
    </clipPath>
  </defs>
  <g id="_3._when_do_you_study_1" data-name="3. when do you study – 1" clip-path="url(#clip-_3._when_do_you_study_1)">
    <path id="Path_1914" data-name="Path 1914" d="M1945-2364.26s220.45-211.953,442.861-110.777,212,258.453,378.518,351.591,243.293,21.124,380.883,10S3385-2054.923,3385-2054.923v79.7H1945Z" transform="translate(-1944.645 2774.788)" fill="#e1f0f4"/>
    <g id="Memorix_Logo_62ACC9" data-name="Memorix Logo_62ACC9" transform="translate(136.013 -273.182)">
      <g id="Group_181" data-name="Group 181" transform="translate(114.987 367.512)">
        <path id="Path_305" data-name="Path 305" d="M121.771,368.813l8.411,22.349,8.391-22.349h6.549V397.97h-5.047v-9.612l.5-12.856-8.611,22.469H128.34l-8.591-22.449.5,12.836v9.612H115.2V368.813Z" transform="translate(-115.203 -368.072)" fill="#279eb8"/>
        <path id="Path_306" data-name="Path 306" d="M186.326,403.727a10.067,10.067,0,0,1-7.5-2.914,10.57,10.57,0,0,1-2.874-7.76v-.6a13.01,13.01,0,0,1,1.251-5.8,9.529,9.529,0,0,1,3.515-3.975,9.294,9.294,0,0,1,5.047-1.422,8.5,8.5,0,0,1,6.839,2.824q2.413,2.824,2.413,7.99v1.963H180.859a6.508,6.508,0,0,0,1.793,4.245,5.381,5.381,0,0,0,3.955,1.562,6.59,6.59,0,0,0,5.447-2.7l2.623,2.5a8.757,8.757,0,0,1-3.474,3.014A10.88,10.88,0,0,1,186.326,403.727Zm-.58-18.564a4.1,4.1,0,0,0-3.234,1.4,7.261,7.261,0,0,0-1.572,3.905h9.272v-.361a5.911,5.911,0,0,0-1.3-3.695A4.066,4.066,0,0,0,185.746,385.163Z" transform="translate(-141.348 -373.428)" fill="#279eb8"/>
        <path id="Path_307" data-name="Path 307" d="M220.617,381.658l.14,2.263a7.8,7.8,0,0,1,6.248-2.664q4.346,0,5.947,3.324a7.686,7.686,0,0,1,6.649-3.324,6.755,6.755,0,0,1,5.337,1.982,8.729,8.729,0,0,1,1.793,5.848v14.238h-4.866v-14.1a4.312,4.312,0,0,0-.9-3.024,3.945,3.945,0,0,0-2.984-.961,4.051,4.051,0,0,0-2.714.891,4.7,4.7,0,0,0-1.472,2.333l.02,14.859h-4.866V389.068q-.1-3.825-3.9-3.825a4.284,4.284,0,0,0-4.146,2.383v15.7h-4.866V381.658Z" transform="translate(-158.597 -373.428)" fill="#279eb8"/>
        <g id="Group_178" data-name="Group 178" transform="translate(120.929 7.83)">
          <path id="Path_308" data-name="Path 308" d="M343.823,386.1a12.006,12.006,0,0,0-1.982-.161q-3.344,0-4.506,2.563v14.819h-4.866V381.658h4.646l.12,2.423a5.482,5.482,0,0,1,4.886-2.824,4.559,4.559,0,0,1,1.722.28Z" transform="translate(-332.469 -381.258)" fill="#279eb8"/>
        </g>
        <g id="Group_179" data-name="Group 179" transform="translate(135.368)">
          <path id="Path_309" data-name="Path 309" d="M362.983,397.41h-4.866V375.742h4.866Zm-5.167-27.3a2.582,2.582,0,0,1,.711-1.862,2.685,2.685,0,0,1,2.033-.741,2.718,2.718,0,0,1,2.043.741,2.562,2.562,0,0,1,.721,1.862,2.5,2.5,0,0,1-.721,1.833,2.742,2.742,0,0,1-2.043.731,2.708,2.708,0,0,1-2.033-.731A2.523,2.523,0,0,1,357.816,370.115Z" transform="translate(-357.816 -367.512)" fill="#279eb8"/>
        </g>
        <g id="Group_180" data-name="Group 180" transform="translate(143.959 8.23)">
          <path id="Path_310" data-name="Path 310" d="M382.551,389.09l4.125-7.129h5.407l-6.629,10.674,6.849,10.994h-5.367l-4.326-7.41-4.305,7.41H372.9l6.849-10.994-6.609-10.674h5.367Z" transform="translate(-372.898 -381.961)" fill="#279eb8"/>
        </g>
      </g>
      <g id="Group_182" data-name="Group 182" transform="translate(206.865 370.068)">
        <path id="Path_311" data-name="Path 311" d="M7.562,11.035a10.828,10.828,0,0,1,.478-1.024A11.652,11.652,0,0,1,18.553,4.072c4.947,0,9.176,2.733,10.776,6.54.059.14.114.281.166.424H24.746l-.008.026a.743.743,0,0,0-.753.547l-.715,2.23L22.549,11,22.1,9.23a.771.771,0,0,0-1.54.041l-.33,1.683-.776,3.95L18.39,10.558,17.5,6.9a.771.771,0,0,0-1.541.035l-.688,3.528-.407,2.086L14.208,15.9l-.651-2.662-.382-1.562a.745.745,0,0,0-.778-.642H7.562Zm22.387,1.555c.031.156.061.336.086.538.583,3.475-.535,6.5-2.687,9.409-1.416,2.258-1.348,6.306-.663,8.846l.008.031H15.01l-.246-1.1c-.23-1.151-.855-1.639-2.306-1.639l-3.267,0a1.75,1.75,0,0,1-1.707-1.737v-.107c.011-1.542.023-4.321.027-5.481l-1.671-.009H5.685a1.012,1.012,0,0,1-.929-1,.989.989,0,0,1,.11-.476c.407-.737,1.276-2.246,1.877-3.22.689-1.116.659-1.283.394-2.139A4.078,4.078,0,0,1,7.1,12.589h4.675l.248,1.015,1.5,6.153a.771.771,0,0,0,1.541-.035l1.342-6.882.407-2.086.039.166,1.517,6.212.395,1.616a.771.771,0,0,0,1.541-.034l.318-1.616.8-4.1.987,3.874c.239.941,1.22.97,1.517.045l1.389-4.333Z" transform="translate(-4.756 -4.072)" fill="#279eb8"/>
      </g>
    </g>
    <path id="Path_6" data-name="Path 6" d="M3482.646,2165.331v285.685h801.583s-52.312-124.056-182.873-165.408-241.092,30.4-323.019-12.1-62.808-88.044-135.4-128.782S3482.646,2165.331,3482.646,2165.331Z" transform="translate(-3482.645 -1652.893)" fill="#b6dae3"/>
    <g id="Group_3731" data-name="Group 3731" transform="translate(563.26 -5773.052)">
      <path id="Path_187" data-name="Path 187" d="M231.941,371.91H187.7c-24.9,13.43-30.211,29.317-30.223,36.366,0,16.233,40.66,23.091,60.447,44.822,15.613,17.151,15.207,28.887,16.483,44.393,30.295-2.016,60.828-2.934,91.111-4.962-2.517-22.829-21.552-40.863-40.35-55.354-32.048-24.69-69.7-20.455-71.706-35.782C212.25,392.031,218.106,381.714,231.941,371.91Z" transform="translate(-468.512 6082.639)" fill="#dfdae4"/>
      <rect id="Rectangle_59" data-name="Rectangle 59" width="73.686" height="115.037" transform="translate(-443.9 6339.513)" fill="#2a0b4c"/>
      <rect id="Rectangle_60" data-name="Rectangle 60" width="36.843" height="115.037" transform="translate(-443.9 6339.513)" fill="#6a5482"/>
      <rect id="Rectangle_61" data-name="Rectangle 61" width="73.686" height="115.037" transform="translate(-443.9 6339.513)" fill="none" stroke="#2a0b4c" stroke-miterlimit="10" stroke-width="1"/>
      <path id="Path_188" data-name="Path 188" d="M83.856,202.82,41.24,290.938h85.231Z" transform="translate(-490.913 6050.054)" fill="#ffd724"/>
      <path id="Path_189" data-name="Path 189" d="M83.856,202.82,41.24,290.938H83.856Z" transform="translate(-490.913 6050.054)" fill="#ffeb91"/>
      <path id="Path_190" data-name="Path 190" d="M83.856,202.82,41.24,290.938h85.231Z" transform="translate(-490.913 6050.054)" fill="none" stroke="#2a0b4c" stroke-miterlimit="10" stroke-width="1"/>
      <path id="Path_191" data-name="Path 191" d="M79.176,333.55h0a13.43,13.43,0,0,1,13.43,13.43v32.311H65.71v-32.3A13.43,13.43,0,0,1,79.176,333.55Z" transform="translate(-486.197 6075.246)" fill="#279fb9"/>
      <path id="Path_192" data-name="Path 192" d="M365.746,203.617c0-19.811-16.5-35.877-36.843-35.877s-36.843,16.066-36.843,35.877Z" transform="translate(-442.576 6043.293)" fill="#6a5482"/>
      <path id="Path_193" data-name="Path 193" d="M365.746,203.617c0-19.811-16.5-35.877-36.843-35.877s-36.843,16.066-36.843,35.877Z" transform="translate(-442.576 6043.293)" fill="none" stroke="#2a0b4c" stroke-miterlimit="10" stroke-width="1"/>
      <rect id="Rectangle_62" data-name="Rectangle 62" width="73.686" height="202.225" transform="translate(-150.516 6252.313)" fill="#ffd724"/>
      <rect id="Rectangle_63" data-name="Rectangle 63" width="36.843" height="202.225" transform="translate(-150.516 6252.313)" fill="#ffeb91"/>
      <rect id="Rectangle_64" data-name="Rectangle 64" width="73.686" height="202.225" transform="translate(-150.516 6252.313)" fill="none" stroke="#2a0b4c" stroke-miterlimit="10" stroke-width="1"/>
      <ellipse id="Ellipse_76" data-name="Ellipse 76" cx="8.266" cy="8.313" rx="8.266" ry="8.313" transform="translate(-121.939 6301.631)" fill="#fff"/>
      <path id="Path_194" data-name="Path 194" d="M331.228,252.019a8.349,8.349,0,0,0-8.278-8.349V260.3A8.349,8.349,0,0,0,331.228,252.019Z" transform="translate(-436.623 6057.925)" fill="#e6e6e6"/>
      <ellipse id="Ellipse_77" data-name="Ellipse 77" cx="8.266" cy="8.313" rx="8.266" ry="8.313" transform="translate(-121.939 6301.631)" fill="none" stroke="#2a0b4c" stroke-miterlimit="10" stroke-width="1"/>
      <ellipse id="Ellipse_78" data-name="Ellipse 78" cx="8.266" cy="8.313" rx="8.266" ry="8.313" transform="translate(-121.939 6263.918)" fill="#fff"/>
      <path id="Path_195" data-name="Path 195" d="M331.228,220.4a8.349,8.349,0,0,0-8.278-8.349v16.638A8.349,8.349,0,0,0,331.228,220.4Z" transform="translate(-436.623 6051.833)" fill="#f4f4f4"/>
      <ellipse id="Ellipse_79" data-name="Ellipse 79" cx="8.266" cy="8.313" rx="8.266" ry="8.313" transform="translate(-121.939 6263.918)" fill="none" stroke="#2a0b4c" stroke-miterlimit="10" stroke-width="1"/>
      <ellipse id="Ellipse_80" data-name="Ellipse 80" cx="8.266" cy="8.313" rx="8.266" ry="8.313" transform="translate(-121.939 6339.333)" fill="#fff"/>
      <path id="Path_196" data-name="Path 196" d="M331.228,283.629a8.349,8.349,0,0,0-8.278-8.349v16.614A8.349,8.349,0,0,0,331.228,283.629Z" transform="translate(-436.623 6064.019)" fill="#e6e6e6"/>
      <ellipse id="Ellipse_81" data-name="Ellipse 81" cx="8.266" cy="8.313" rx="8.266" ry="8.313" transform="translate(-121.939 6339.333)" fill="none" stroke="#2a0b4c" stroke-miterlimit="10" stroke-width="1"/>
      <ellipse id="Ellipse_82" data-name="Ellipse 82" cx="8.266" cy="8.313" rx="8.266" ry="8.313" transform="translate(-121.939 6377.047)" fill="#fff"/>
      <path id="Path_197" data-name="Path 197" d="M331.228,315.249a8.349,8.349,0,0,0-8.278-8.349v16.614A8.349,8.349,0,0,0,331.228,315.249Z" transform="translate(-436.623 6070.111)" fill="#e6e6e6"/>
      <ellipse id="Ellipse_83" data-name="Ellipse 83" cx="8.266" cy="8.313" rx="8.266" ry="8.313" transform="translate(-121.939 6377.047)" fill="none" stroke="#2a0b4c" stroke-miterlimit="10" stroke-width="1"/>
      <path id="Path_198" data-name="Path 198" d="M274.056,214.132v21.815H150.3V214.132h15.124V157.979h25.631v32.8l16.161,16.161V88.73h52.694v125.4Z" transform="translate(-469.895 6028.068)" fill="#177382"/>
      <rect id="Rectangle_65" data-name="Rectangle 65" width="112.39" height="169.365" transform="translate(-257.825 6285.185)" fill="#279fb9"/>
      <rect id="Rectangle_66" data-name="Rectangle 66" width="112.39" height="169.365" transform="translate(-370.214 6285.185)" fill="#68bcce"/>
      <rect id="Rectangle_67" data-name="Rectangle 67" width="224.779" height="169.365" transform="translate(-370.214 6285.185)" fill="none" stroke="#2a0b4c" stroke-miterlimit="10" stroke-width="1"/>
      <path id="Path_199" data-name="Path 199" d="M203.718,253h0A10.078,10.078,0,0,1,213.8,263.081v23.711H193.64V263.069a10.078,10.078,0,0,1,10.078-10.078Z" transform="translate(-461.543 6059.721)" fill="#fff"/>
      <path id="Path_200" data-name="Path 200" d="M212.169,286.78V263.069A10.078,10.078,0,0,0,202.09,252.99v33.79Z" transform="translate(-459.915 6059.721)" fill="#e6e6e6"/>
      <path id="Path_201" data-name="Path 201" d="M203.718,253h0A10.078,10.078,0,0,1,213.8,263.081v23.711H193.64V263.069a10.078,10.078,0,0,1,10.078-10.078Z" transform="translate(-461.543 6059.721)" fill="none" stroke="#2a0b4c" stroke-miterlimit="10" stroke-width="1"/>
      <path id="Path_202" data-name="Path 202" d="M263.719,253h0A10.079,10.079,0,0,1,273.8,263.078v23.711H253.64V263.066A10.079,10.079,0,0,1,263.719,253Z" transform="translate(-449.98 6059.723)" fill="#fff"/>
      <path id="Path_203" data-name="Path 203" d="M272.168,286.78V263.069A10.078,10.078,0,0,0,262.09,252.99v33.79Z" transform="translate(-448.352 6059.721)" fill="#e6e6e6"/>
      <path id="Path_204" data-name="Path 204" d="M263.719,253h0A10.079,10.079,0,0,1,273.8,263.078v23.711H253.64V263.066A10.079,10.079,0,0,1,263.719,253Z" transform="translate(-449.98 6059.723)" fill="none" stroke="#2a0b4c" stroke-miterlimit="10" stroke-width="1"/>
      <path id="Path_205" data-name="Path 205" d="M143.718,253h0A10.078,10.078,0,0,1,153.8,263.081v23.711H133.64V263.069a10.078,10.078,0,0,1,10.078-10.078Z" transform="translate(-473.106 6059.721)" fill="#fff"/>
      <path id="Path_206" data-name="Path 206" d="M152.168,286.78V263.069A10.078,10.078,0,0,0,142.09,252.99v33.79Z" transform="translate(-471.478 6059.721)" fill="#e6e6e6"/>
      <path id="Path_207" data-name="Path 207" d="M143.718,253h0A10.078,10.078,0,0,1,153.8,263.081v23.711H133.64V263.069a10.078,10.078,0,0,1,10.078-10.078Z" transform="translate(-473.106 6059.721)" fill="none" stroke="#2a0b4c" stroke-miterlimit="10" stroke-width="1"/>
      <path id="Path_208" data-name="Path 208" d="M78.634,288.46h0a10.078,10.078,0,0,1,10.078,10.078V322.25H68.52V298.538A10.078,10.078,0,0,1,78.634,288.46Z" transform="translate(-485.656 6066.557)" fill="#fff"/>
      <path id="Path_209" data-name="Path 209" d="M87.043,322.25V298.539A10.078,10.078,0,0,0,77,288.46v33.79Z" transform="translate(-484.021 6066.557)" fill="#e6e6e6"/>
      <path id="Path_210" data-name="Path 210" d="M78.634,288.46h0a10.078,10.078,0,0,1,10.078,10.078V322.25H68.52V298.538A10.078,10.078,0,0,1,78.634,288.46Z" transform="translate(-485.656 6066.557)" fill="none" stroke="#2a0b4c" stroke-miterlimit="10" stroke-width="1"/>
      <path id="Path_211" data-name="Path 211" d="M263.719,314h0A10.078,10.078,0,0,1,273.8,324.079V347.79H253.64V324.067A10.079,10.079,0,0,1,263.719,314Z" transform="translate(-449.98 6071.479)" fill="#fff"/>
      <path id="Path_212" data-name="Path 212" d="M272.168,347.78V324.068A10.078,10.078,0,0,0,262.09,313.99v33.79Z" transform="translate(-448.352 6071.477)" fill="#e6e6e6"/>
      <path id="Path_213" data-name="Path 213" d="M263.719,314h0A10.078,10.078,0,0,1,273.8,324.079V347.79H253.64V324.067A10.079,10.079,0,0,1,263.719,314Z" transform="translate(-449.98 6071.479)" fill="none" stroke="#2a0b4c" stroke-miterlimit="10" stroke-width="1"/>
      <path id="Path_214" data-name="Path 214" d="M143.718,314h0A10.078,10.078,0,0,1,153.8,324.081v23.711H133.64V324.068a10.078,10.078,0,0,1,10.078-10.078Z" transform="translate(-473.106 6071.477)" fill="#fff"/>
      <path id="Path_215" data-name="Path 215" d="M152.168,347.78V324.068A10.078,10.078,0,0,0,142.09,313.99v33.79Z" transform="translate(-471.478 6071.477)" fill="#e6e6e6"/>
      <path id="Path_216" data-name="Path 216" d="M143.718,314h0A10.078,10.078,0,0,1,153.8,324.081v23.711H133.64V324.068a10.078,10.078,0,0,1,10.078-10.078Z" transform="translate(-473.106 6071.477)" fill="none" stroke="#2a0b4c" stroke-miterlimit="10" stroke-width="1"/>
      <rect id="Rectangle_68" data-name="Rectangle 68" width="244.984" height="5.987" transform="translate(-380.316 6278.875)" fill="#ffd724"/>
      <rect id="Rectangle_69" data-name="Rectangle 69" width="244.984" height="5.987" transform="translate(-380.316 6278.875)" fill="none" stroke="#2a0b4c" stroke-miterlimit="10" stroke-width="1"/>
      <rect id="Rectangle_70" data-name="Rectangle 70" width="86.138" height="5.987" transform="translate(-156.742 6246.909)" fill="#279fb9"/>
      <rect id="Rectangle_71" data-name="Rectangle 71" width="86.138" height="5.987" transform="translate(-156.742 6246.909)" fill="none" stroke="#2a0b4c" stroke-miterlimit="10" stroke-width="1"/>
      <line id="Line_92" data-name="Line 92" y1="74.819" transform="translate(-292.103 6091.021)" fill="none" stroke="#2a0b4c" stroke-miterlimit="10" stroke-width="1"/>
      <path id="Path_217" data-name="Path 217" d="M176.208,126.98,158.52,151.8h35.364Z" transform="translate(-468.311 6035.438)" fill="#2a0b4c"/>
      <circle id="Ellipse_84" data-name="Ellipse 84" cx="3.614" cy="3.614" r="3.614" transform="translate(-295.717 6087.408)" fill="#2a0b4c"/>
      <path id="Path_218" data-name="Path 218" d="M186.279,77.618,173.35,70.14V85.085Z" transform="translate(-465.453 6024.483)" fill="#ffd724"/>
      <path id="Path_219" data-name="Path 219" d="M186.279,77.618,173.35,70.14V85.085Z" transform="translate(-465.453 6024.483)" fill="none" stroke="#2a0b4c" stroke-miterlimit="10" stroke-width="1"/>
      <path id="Path_220" data-name="Path 220" d="M274.056,214.132v21.815H150.3V214.132h15.124V157.979h25.631v32.8l16.161,16.161V88.73h52.694v125.4Z" transform="translate(-469.895 6028.068)" fill="none" stroke="#2a0b4c" stroke-miterlimit="10" stroke-width="1"/>
      <rect id="Rectangle_72" data-name="Rectangle 72" width="224.779" height="18.571" transform="translate(-370.214 6260.315)" fill="#279fb9"/>
      <rect id="Rectangle_73" data-name="Rectangle 73" width="224.779" height="18.571" transform="translate(-370.214 6260.315)" fill="none" stroke="#2a0b4c" stroke-miterlimit="10" stroke-width="1"/>
      <line id="Line_93" data-name="Line 93" y2="18.559" transform="translate(-360.684 6260.315)" fill="none" stroke="#2a0b4c" stroke-miterlimit="10" stroke-width="1"/>
      <line id="Line_94" data-name="Line 94" y2="18.559" transform="translate(-349.246 6260.315)" fill="none" stroke="#2a0b4c" stroke-miterlimit="10" stroke-width="1"/>
      <line id="Line_95" data-name="Line 95" y2="18.559" transform="translate(-337.82 6260.315)" fill="none" stroke="#2a0b4c" stroke-miterlimit="10" stroke-width="1"/>
      <line id="Line_96" data-name="Line 96" y2="18.559" transform="translate(-326.394 6260.315)" fill="none" stroke="#2a0b4c" stroke-miterlimit="10" stroke-width="1"/>
      <line id="Line_97" data-name="Line 97" y2="18.559" transform="translate(-314.968 6260.315)" fill="none" stroke="#2a0b4c" stroke-miterlimit="10" stroke-width="1"/>
      <line id="Line_98" data-name="Line 98" y2="18.559" transform="translate(-303.541 6260.315)" fill="none" stroke="#2a0b4c" stroke-miterlimit="10" stroke-width="1"/>
      <line id="Line_99" data-name="Line 99" y2="18.559" transform="translate(-292.103 6260.315)" fill="none" stroke="#2a0b4c" stroke-miterlimit="10" stroke-width="1"/>
      <line id="Line_100" data-name="Line 100" y2="18.559" transform="translate(-280.677 6260.315)" fill="none" stroke="#2a0b4c" stroke-miterlimit="10" stroke-width="1"/>
      <line id="Line_101" data-name="Line 101" y2="18.559" transform="translate(-269.251 6260.315)" fill="none" stroke="#2a0b4c" stroke-miterlimit="10" stroke-width="1"/>
      <line id="Line_102" data-name="Line 102" y2="18.559" transform="translate(-257.825 6260.315)" fill="none" stroke="#2a0b4c" stroke-miterlimit="10" stroke-width="1"/>
      <line id="Line_103" data-name="Line 103" y2="18.559" transform="translate(-246.398 6260.315)" fill="none" stroke="#2a0b4c" stroke-miterlimit="10" stroke-width="1"/>
      <line id="Line_104" data-name="Line 104" y2="18.559" transform="translate(-234.96 6260.315)" fill="none" stroke="#2a0b4c" stroke-miterlimit="10" stroke-width="1"/>
      <line id="Line_105" data-name="Line 105" y2="18.559" transform="translate(-223.534 6260.315)" fill="none" stroke="#2a0b4c" stroke-miterlimit="10" stroke-width="1"/>
      <line id="Line_106" data-name="Line 106" y2="18.559" transform="translate(-212.108 6260.315)" fill="none" stroke="#2a0b4c" stroke-miterlimit="10" stroke-width="1"/>
      <line id="Line_107" data-name="Line 107" y2="18.559" transform="translate(-200.682 6260.315)" fill="none" stroke="#2a0b4c" stroke-miterlimit="10" stroke-width="1"/>
      <line id="Line_108" data-name="Line 108" y2="18.559" transform="translate(-189.255 6260.315)" fill="none" stroke="#2a0b4c" stroke-miterlimit="10" stroke-width="1"/>
      <line id="Line_109" data-name="Line 109" y2="18.559" transform="translate(-177.817 6260.315)" fill="none" stroke="#2a0b4c" stroke-miterlimit="10" stroke-width="1"/>
      <line id="Line_110" data-name="Line 110" y2="18.559" transform="translate(-166.391 6260.315)" fill="none" stroke="#2a0b4c" stroke-miterlimit="10" stroke-width="1"/>
      <line id="Line_111" data-name="Line 111" y2="18.559" transform="translate(-154.965 6260.315)" fill="none" stroke="#2a0b4c" stroke-miterlimit="10" stroke-width="1"/>
      <rect id="Rectangle_74" data-name="Rectangle 74" width="46.134" height="43.808" transform="translate(-365.73 6216.507)" fill="#177382"/>
      <rect id="Rectangle_75" data-name="Rectangle 75" width="46.134" height="43.808" transform="translate(-365.73 6216.507)" fill="none" stroke="#2a0b4c" stroke-miterlimit="10" stroke-width="1"/>
      <ellipse id="Ellipse_85" data-name="Ellipse 85" cx="7.192" cy="11.259" rx="7.192" ry="11.259" transform="translate(-349.855 6227.146)" fill="#fff"/>
      <path id="Path_221" data-name="Path 221" d="M138.156,192.507c0-6.214-3.22-11.247-7.156-11.247v22.507C134.924,203.767,138.156,198.733,138.156,192.507Z" transform="translate(-473.615 6045.897)" fill="#e6e6e6"/>
      <ellipse id="Ellipse_86" data-name="Ellipse 86" cx="7.192" cy="11.259" rx="7.192" ry="11.259" transform="translate(-349.855 6227.146)" fill="none" stroke="#2a0b4c" stroke-miterlimit="10" stroke-width="1"/>
      <line id="Line_112" data-name="Line 112" y1="50.798" transform="translate(-342.663 6142.833)" fill="none" stroke="#2a0b4c" stroke-miterlimit="10" stroke-width="1"/>
      <path id="Path_222" data-name="Path 222" d="M135.518,149.75,107.31,179.317h56.427Z" transform="translate(-478.18 6039.826)" fill="#2a0b4c"/>
      <circle id="Ellipse_87" data-name="Ellipse 87" cx="3.614" cy="3.614" r="3.614" transform="translate(-346.276 6139.218)" fill="#2a0b4c"/>
      <path id="Path_223" data-name="Path 223" d="M143.9,121.056,130.96,113.59v14.933Z" transform="translate(-473.623 6032.858)" fill="#ffd724"/>
      <path id="Path_224" data-name="Path 224" d="M143.9,121.056,130.96,113.59v14.933Z" transform="translate(-473.623 6032.858)" fill="none" stroke="#2a0b4c" stroke-miterlimit="10" stroke-width="1"/>
      <rect id="Rectangle_76" data-name="Rectangle 76" width="46.134" height="43.808" transform="translate(-195.827 6216.507)" fill="#177382"/>
      <rect id="Rectangle_77" data-name="Rectangle 77" width="46.134" height="43.808" transform="translate(-195.827 6216.507)" fill="none" stroke="#2a0b4c" stroke-miterlimit="10" stroke-width="1"/>
      <ellipse id="Ellipse_88" data-name="Ellipse 88" cx="7.192" cy="11.259" rx="7.192" ry="11.259" transform="translate(-179.952 6227.146)" fill="#fff"/>
      <path id="Path_225" data-name="Path 225" d="M280.586,192.507c0-6.214-3.208-11.247-7.156-11.247v22.507C277.378,203.767,280.586,198.733,280.586,192.507Z" transform="translate(-446.166 6045.897)" fill="#e6e6e6"/>
      <ellipse id="Ellipse_89" data-name="Ellipse 89" cx="7.192" cy="11.259" rx="7.192" ry="11.259" transform="translate(-179.952 6227.146)" fill="none" stroke="#2a0b4c" stroke-miterlimit="10" stroke-width="1"/>
      <ellipse id="Ellipse_90" data-name="Ellipse 90" cx="7.192" cy="11.259" rx="7.192" ry="11.259" transform="translate(-243.524 6181.12)" fill="#fff"/>
      <path id="Path_226" data-name="Path 226" d="M227.3,153.919c0-6.214-3.22-11.259-7.156-11.259v22.518C224.076,165.178,227.3,160.133,227.3,153.919Z" transform="translate(-456.436 6038.46)" fill="#e6e6e6"/>
      <ellipse id="Ellipse_91" data-name="Ellipse 91" cx="7.192" cy="11.259" rx="7.192" ry="11.259" transform="translate(-243.524 6181.12)" fill="none" stroke="#2a0b4c" stroke-miterlimit="10" stroke-width="1"/>
      <ellipse id="Ellipse_92" data-name="Ellipse 92" cx="7.192" cy="11.259" rx="7.192" ry="11.259" transform="translate(-243.524 6219.144)" fill="#fff"/>
      <path id="Path_227" data-name="Path 227" d="M227.3,185.819c0-6.214-3.22-11.259-7.156-11.259v22.518C224.076,197.055,227.3,192.01,227.3,185.819Z" transform="translate(-456.436 6044.608)" fill="#e6e6e6"/>
      <ellipse id="Ellipse_93" data-name="Ellipse 93" cx="7.192" cy="11.259" rx="7.192" ry="11.259" transform="translate(-243.524 6219.144)" fill="none" stroke="#2a0b4c" stroke-miterlimit="10" stroke-width="1"/>
      <ellipse id="Ellipse_94" data-name="Ellipse 94" cx="7.192" cy="11.259" rx="7.192" ry="11.259" transform="translate(-243.524 6129.093)" fill="#fff"/>
      <path id="Path_228" data-name="Path 228" d="M227.3,110.3c0-6.214-3.22-11.259-7.156-11.259v22.518C224.076,121.558,227.3,116.513,227.3,110.3Z" transform="translate(-456.436 6030.054)" fill="#e6e6e6"/>
      <ellipse id="Ellipse_95" data-name="Ellipse 95" cx="7.192" cy="11.259" rx="7.192" ry="11.259" transform="translate(-243.524 6129.093)" fill="none" stroke="#2a0b4c" stroke-miterlimit="10" stroke-width="1"/>
      <line id="Line_113" data-name="Line 113" y1="50.798" transform="translate(-172.76 6142.833)" fill="none" stroke="#2a0b4c" stroke-miterlimit="10" stroke-width="1"/>
      <path id="Path_229" data-name="Path 229" d="M277.97,149.75l-28.22,29.567h56.427Z" transform="translate(-450.73 6039.826)" fill="#2a0b4c"/>
      <circle id="Ellipse_96" data-name="Ellipse 96" cx="3.614" cy="3.614" r="3.614" transform="translate(-176.374 6139.218)" fill="#2a0b4c"/>
      <path id="Path_230" data-name="Path 230" d="M286.339,121.056,273.41,113.59v14.933Z" transform="translate(-446.17 6032.858)" fill="#ffd724"/>
      <path id="Path_231" data-name="Path 231" d="M286.339,121.056,273.41,113.59v14.933Z" transform="translate(-446.17 6032.858)" fill="none" stroke="#2a0b4c" stroke-miterlimit="10" stroke-width="1"/>
      <line id="Line_114" data-name="Line 114" y1="50.762" transform="translate(-113.721 6196.148)" fill="none" stroke="#2a0b4c" stroke-miterlimit="10" stroke-width="1"/>
      <circle id="Ellipse_97" data-name="Ellipse 97" cx="3.614" cy="3.614" r="3.614" transform="translate(-117.335 6192.534)" fill="#2a0b4c"/>
      <line id="Line_115" data-name="Line 115" y1="75.511" transform="translate(-236.332 6015.667)" fill="none" stroke="#2a0b4c" stroke-miterlimit="10" stroke-width="1"/>
      <path id="Path_232" data-name="Path 232" d="M225.29,62.33,193.23,95.941h64.132Z" transform="translate(-461.622 6022.979)" fill="#2a0b4c"/>
      <circle id="Ellipse_98" data-name="Ellipse 98" cx="3.614" cy="3.614" r="3.614" transform="translate(-239.946 6012.052)" fill="#2a0b4c"/>
      <rect id="Rectangle_78" data-name="Rectangle 78" width="59.588" height="9.16" transform="translate(-266.126 6161.786)" fill="#ffd724"/>
      <rect id="Rectangle_79" data-name="Rectangle 79" width="59.588" height="9.16" transform="translate(-266.126 6161.786)" fill="none" stroke="#2a0b4c" stroke-miterlimit="10" stroke-width="1"/>
      <path id="Path_233" data-name="Path 233" d="M220.11,7c6.322.62,17.6,2.242,28.243,7.156C269.19,23.7,270.073,34.886,284.135,37.7c17.616,3.578,25.286-12.368,45.383-10.734,13.871,1.1,24.451,9.792,30.915,16.448-6.727-2.815-17.259-7.407-29.734-6.095-22.22,2.195-28.423,19.775-47.613,17.39-10.651-1.348-17.891-8.647-37.571-20.181-8.528-4.986-19.942-4.186-25.4-4.771Z" transform="translate(-456.442 6012.316)" fill="#279fb9"/>
      <path id="Path_234" data-name="Path 234" d="M283.085,53c19.083,2.385,25.393-15.136,47.565-17.485,12.476-1.312,23.008,3.28,29.735,6.095h-.06c-9.792-6.906-23.938-14.527-35.9-11.307-20.956,5.51-24.236,15.541-41.363,13.251C265.075,41.166,259.6,24.038,234.912,17.7a59.339,59.339,0,0,0-14.8-1.825V28.034c5.463.537,16.877-.262,25.4,4.771C265.207,44.291,272.458,51.59,283.085,53Z" transform="translate(-456.442 6014.028)" fill="#ffd724"/>
      <path id="Path_235" data-name="Path 235" d="M220.11,7c6.322.62,17.6,2.242,28.243,7.156C269.19,23.7,270.073,34.886,284.135,37.7c17.616,3.578,25.286-12.368,45.383-10.734,13.871,1.1,24.451,9.792,30.915,16.448-6.727-2.815-17.259-7.407-29.734-6.095-22.22,2.195-28.423,19.775-47.613,17.39-10.651-1.348-17.891-8.647-37.571-20.181-8.528-4.986-19.942-4.186-25.4-4.771Z" transform="translate(-456.442 6012.316)" fill="none" stroke="#2a0b4c" stroke-miterlimit="10" stroke-width="1"/>
      <path id="Path_236" data-name="Path 236" d="M283.085,53c19.083,2.385,25.393-15.136,47.565-17.485,12.476-1.312,23.008,3.28,29.735,6.095h-.06c-9.792-6.906-23.938-14.527-35.9-11.307-20.956,5.51-24.236,15.541-41.363,13.251C265.075,41.166,259.6,24.038,234.912,17.7a59.339,59.339,0,0,0-14.8-1.825V28.034c5.463.537,16.877-.262,25.4,4.771C265.207,44.291,272.458,51.59,283.085,53Z" transform="translate(-456.442 6014.028)" fill="none" stroke="#2a0b4c" stroke-miterlimit="10" stroke-width="1"/>
      <path id="Path_237" data-name="Path 237" d="M323,167.74c3.077.62,10.639,3.053,18.607,12.309a38.059,38.059,0,0,1,9.065,22.888" transform="translate(-436.613 6043.293)" fill="none" stroke="#2a0b4c" stroke-miterlimit="10" stroke-width="1"/>
      <path id="Path_238" data-name="Path 238" d="M323,167.74c2.958,2.195,6.357,7.311,10.091,14.313a43.607,43.607,0,0,1,5.045,21.588" transform="translate(-436.613 6043.293)" fill="none" stroke="#2a0b4c" stroke-miterlimit="10" stroke-width="1"/>
      <path id="Path_239" data-name="Path 239" d="M327.379,167.74c-3.077.62-10.639,3.053-18.595,12.309a37.906,37.906,0,0,0-9.065,22.888" transform="translate(-441.1 6043.293)" fill="none" stroke="#2a0b4c" stroke-miterlimit="10" stroke-width="1"/>
      <path id="Path_240" data-name="Path 240" d="M325.356,167.74c-2.958,2.195-6.345,7.311-10.09,14.313a43.689,43.689,0,0,0-5.033,21.588" transform="translate(-439.077 6043.293)" fill="none" stroke="#2a0b4c" stroke-miterlimit="10" stroke-width="1"/>
      <line id="Line_116" data-name="Line 116" y1="88.118" transform="translate(-407.057 6252.873)" fill="none" stroke="#2a0b4c" stroke-miterlimit="10" stroke-width="1"/>
      <line id="Line_117" data-name="Line 117" x2="20.181" y2="86.734" transform="translate(-407.057 6254.258)" fill="none" stroke="#2a0b4c" stroke-miterlimit="10" stroke-width="1"/>
      <line id="Line_118" data-name="Line 118" x1="20.169" y2="86.734" transform="translate(-427.226 6254.258)" fill="none" stroke="#2a0b4c" stroke-miterlimit="10" stroke-width="1"/>
      <ellipse id="Ellipse_99" data-name="Ellipse 99" cx="5.665" cy="5.665" rx="5.665" ry="5.665" transform="translate(-412.723 6247.398)" fill="#177382" stroke="#2a0b4c" stroke-miterlimit="10" stroke-width="1"/>
      <path id="Path_241" data-name="Path 241" d="M79.17,333.55a13.442,13.442,0,0,0-13.43,13.442V379.3H79.17Z" transform="translate(-486.191 6075.246)" fill="#68bcce"/>
      <path id="Path_242" data-name="Path 242" d="M79.176,333.55h0a13.43,13.43,0,0,1,13.43,13.43v32.311H65.71v-32.3A13.43,13.43,0,0,1,79.176,333.55Z" transform="translate(-486.197 6075.246)" fill="none" stroke="#2a0b4c" stroke-miterlimit="10" stroke-width="1"/>
      <path id="Path_243" data-name="Path 243" d="M205.644,309.08h0a22.006,22.006,0,0,1,22.006,22.006v52.933h-44V331.086a22.005,22.005,0,0,1,21.994-22.006Z" transform="translate(-463.468 6070.531)" fill="#2a0b4c"/>
      <path id="Path_244" data-name="Path 244" d="M205.644,309.08a21.994,21.994,0,0,0-21.994,22.006v52.933h21.994Z" transform="translate(-463.468 6070.531)" fill="#6a5482"/>
      <path id="Path_245" data-name="Path 245" d="M205.644,309.08h0a22.006,22.006,0,0,1,22.006,22.006v52.933h-44V331.086a22.005,22.005,0,0,1,21.994-22.006Z" transform="translate(-463.468 6070.531)" fill="none" stroke="#2a0b4c" stroke-miterlimit="10" stroke-width="1"/>
      <path id="Path_246" data-name="Path 246" d="M325.18,333.55h0a13.43,13.43,0,0,1,13.43,13.43v32.311H311.69v-32.3a13.43,13.43,0,0,1,13.49-13.442Z" transform="translate(-438.793 6075.246)" fill="#2a0b4c"/>
      <path id="Path_247" data-name="Path 247" d="M325.17,333.55a13.442,13.442,0,0,0-13.43,13.442V379.3h13.43Z" transform="translate(-438.783 6075.246)" fill="#6a5482"/>
      <path id="Path_248" data-name="Path 248" d="M325.18,333.55h0a13.43,13.43,0,0,1,13.43,13.43v32.311H311.69v-32.3a13.43,13.43,0,0,1,13.49-13.442Z" transform="translate(-438.793 6075.246)" fill="none" stroke="#2a0b4c" stroke-miterlimit="10" stroke-width="1"/>
      <path id="Path_249" data-name="Path 249" d="M296.523,111.71H391.63a20.467,20.467,0,0,0-33.205-21.469,21.111,21.111,0,0,0-40.111,1.383c-.62-.179-9.327-2.385-16.257,3.8C294.877,101.882,296.428,111.221,296.523,111.71Z" transform="translate(-430.642 6024.276)" fill="#dfdae4" stroke="#2a0b4c" stroke-miterlimit="10" stroke-width="1"/>
      <path id="Path_250" data-name="Path 250" d="M454.779,141.747H315.684a22.793,22.793,0,0,1,33.79-21.922,42.485,42.485,0,0,1,81.94,4.64,18.356,18.356,0,0,1,15.505,1.8C454.958,131.621,454.791,141.222,454.779,141.747Z" transform="translate(-424.265 6031.202)" fill="#dfdae4" stroke="#2a0b4c" stroke-miterlimit="10" stroke-width="1"/>
      <path id="Path_251" data-name="Path 251" d="M118.276,170.354H27.7A19.489,19.489,0,0,1,59.32,149.935a20.109,20.109,0,0,1,38.167,1.312c.6-.155,8.886-2.254,15.505,3.578C119.838,160.979,118.359,169.877,118.276,170.354Z" transform="translate(-517.027 6037.326)" fill="#dfdae4" stroke="#2a0b4c" stroke-miterlimit="10" stroke-width="1"/>
      <path id="Path_252" data-name="Path 252" d="M188.7,371.91c-27.158,14.42-31.643,29.925-31.213,36.366,1.4,20.717,52.169,22.435,70.549,59.039a64.025,64.025,0,0,1,6.4,30.176l91.088-5.009c-1.634-20.92-22.483-44.536-46.957-59.636-32.012-19.823-62.618-17.33-65.11-31.4-.906-5.141-.6-17.151,19.227-29.484" transform="translate(-468.516 6082.639)" fill="none" stroke="#2a0b4c" stroke-miterlimit="10" stroke-width="1"/>
    </g>
  </g>
</svg>
