<svg width="46" height="40" viewBox="0 0 46 40" fill="none" xmlns="http://www.w3.org/2000/svg">
<path d="M21.566 13V12.9H21.466H20.3845H20.2845V13V19.83H11.1815V13V12.9H11.0815H10H9.9V13V27.8575V27.9575H10H11.0815H11.1815V27.8575V20.8385H20.2845V27.8575V27.9575H20.3845H21.466H21.566V27.8575V13ZM30.4939 14.5856L30.4943 14.5843C30.5102 14.5344 30.5257 14.4838 30.5409 14.4325C30.608 14.6397 30.6769 14.8261 30.7477 14.9914C30.7478 14.9917 30.748 14.9921 30.7481 14.9924L33.716 22.3605H27.3657L30.3336 15.0025C30.3908 14.8737 30.4442 14.7347 30.4939 14.5856ZM37.1505 27.9575H37.2995L37.2431 27.8196L31.1636 12.9621L31.1382 12.9H31.071H30.0105H29.9434L29.918 12.9621L23.8385 27.8196L23.7821 27.9575H23.931H24.75C24.8685 27.9575 24.9751 27.9231 25.0645 27.8516C25.1469 27.7856 25.2074 27.705 25.2424 27.6099L26.9595 23.3585H34.1221L35.8398 27.6115L35.8402 27.6125C35.8805 27.7092 35.938 27.792 36.0131 27.8587L36.013 27.8589L36.0181 27.8629C36.1024 27.9285 36.206 27.9575 36.321 27.9575H37.1505Z" fill="#957B5F" stroke="#957B5F" stroke-width="0.2"/>
<rect x="1.5" y="1.5" width="43" height="37" stroke="#957B5F" stroke-width="3"/>
</svg>
