<svg width="127" height="22" viewBox="0 0 127 22" fill="none" xmlns="http://www.w3.org/2000/svg">
<path d="M22.1989 10.9992C22.1989 4.93451 17.2197 0 11.0986 0C4.97905 0 -7.82013e-05 4.93451 -7.82013e-05 10.9992C-7.82013e-05 17.0639 4.97905 21.9984 11.0986 21.9984C17.2197 22 22.1989 17.0655 22.1989 10.9992ZM3.55509 10.9992C3.55509 6.87646 6.94014 3.52331 11.0986 3.52331C15.2586 3.52331 18.6421 6.87802 18.6421 10.9992C18.6421 15.1204 15.2571 18.4751 11.0986 18.4751C6.94014 18.4767 3.55509 15.122 3.55509 10.9992Z" fill="url(#paint0_linear)"/>
<path d="M3.55486 10.9992C3.55486 17.0639 8.53398 21.9984 14.6535 21.9984C20.7747 22 25.7538 17.0655 25.7538 10.9992C25.7538 4.93295 20.7747 0 14.6551 0C8.53398 0 3.55486 4.93451 3.55486 10.9992ZM22.1986 10.9992C22.1986 15.122 18.8136 18.4751 14.6551 18.4751C10.4951 18.4751 7.1116 15.1204 7.1116 10.9992C7.1116 6.87802 10.4951 3.52331 14.6551 3.52331C18.8136 3.52331 22.1986 6.87802 22.1986 10.9992Z" fill="url(#paint1_linear)"/>
<path d="M31.4373 3.81641L37.8451 18.8432L39.8896 13.9399L35.8698 3.81641H31.4373Z" fill="url(#paint2_linear)"/>
<path d="M41.8683 18.8432L48.2761 3.81641H43.9775L39.8899 13.9399L37.8453 18.8432H41.8683Z" fill="url(#paint3_linear)"/>
<path d="M63.9218 18.8432L57.5124 3.81641L55.4694 8.71813L59.4892 18.8432H63.9218Z" fill="url(#paint4_linear)"/>
<path d="M53.4912 3.81641L47.0834 18.8432H51.382L55.4696 8.71813L57.5126 3.81641H53.4912Z" fill="url(#paint5_linear)"/>
<path d="M70.6324 15.2202V3.92285H66.4597V18.8435H70.6324H77.9223V15.2202H70.6324Z" fill="url(#paint6_linear)"/>
<path d="M89.9453 3.92285V12.3198C89.9453 14.4085 88.849 15.3888 87.1715 15.3888C85.4939 15.3888 84.3976 14.3663 84.3976 12.2136V3.92285H80.1604V12.2995C80.1604 16.9671 82.8492 19.1198 87.1289 19.1198C87.1431 19.1198 87.1573 19.1198 87.1715 19.1198C91.426 19.1057 94.1825 16.9936 94.1825 12.1933V3.92285H89.9453Z" fill="url(#paint7_linear)"/>
<path d="M101.859 15.3264V12.9598H106.923L106.922 9.69877H101.859V7.43992H109.839V3.92285H101.854H97.7306V18.8435H101.854H109.946V15.3264H101.859Z" fill="url(#paint8_linear)"/>
<path d="M123.408 13.642C123.41 13.642 123.412 13.6404 123.413 13.6404C123.645 13.5421 123.867 13.4328 124.078 13.3126L121.247 10.8805C121.073 10.9507 120.879 11.0054 120.665 11.0397C120.482 11.0694 120.285 11.085 120.075 11.085H117.322V7.87545V7.5086L113.149 3.92285V3.92597V18.8435H117.322V14.3242H119.151L122.183 18.8435H127L123.408 13.642Z" fill="url(#paint9_linear)"/>
<path d="M117.322 7.50353H120.053C121.452 7.50353 122.312 8.09985 122.312 9.27221V9.31436C122.312 10.0527 121.934 10.6022 121.247 10.8785L124.078 13.3107C125.567 12.4614 126.505 11.0534 126.505 9.05834V9.01619C126.505 7.54568 126.053 6.39518 125.173 5.54128C124.161 4.51878 122.571 3.9209 120.269 3.9209H117.322H113.149L117.322 7.50665V7.50353Z" fill="url(#paint10_linear)"/>
<defs>
<linearGradient id="paint0_linear" x1="11.0993" y1="0" x2="11.0993" y2="21.9999" gradientUnits="userSpaceOnUse">
<stop stop-color="white" stop-opacity="0"/>
<stop offset="1" stop-color="#00A4FF"/>
</linearGradient>
<linearGradient id="paint1_linear" x1="14.6544" y1="21.9999" x2="14.6544" y2="0" gradientUnits="userSpaceOnUse">
<stop stop-color="white" stop-opacity="0"/>
<stop offset="1" stop-color="#00A4FF"/>
</linearGradient>
<linearGradient id="paint2_linear" x1="31.4368" y1="11.3294" x2="39.8889" y2="11.3294" gradientUnits="userSpaceOnUse">
<stop stop-color="#041431"/>
<stop offset="0.5" stop-color="#072253"/>
</linearGradient>
<linearGradient id="paint3_linear" x1="37.8461" y1="11.3294" x2="48.2767" y2="11.3294" gradientUnits="userSpaceOnUse">
<stop stop-color="#041431"/>
<stop offset="0.5" stop-color="#072253"/>
</linearGradient>
<linearGradient id="paint4_linear" x1="55.4699" y1="11.3294" x2="63.922" y2="11.3294" gradientUnits="userSpaceOnUse">
<stop offset="1.24601e-07" stop-color="#041431"/>
<stop offset="0.5" stop-color="#072253"/>
</linearGradient>
<linearGradient id="paint5_linear" x1="47.0826" y1="11.3294" x2="57.5132" y2="11.3294" gradientUnits="userSpaceOnUse">
<stop offset="1.24601e-07" stop-color="#041431"/>
<stop offset="0.5" stop-color="#072253"/>
</linearGradient>
<linearGradient id="paint6_linear" x1="66.4599" y1="11.383" x2="77.9231" y2="11.383" gradientUnits="userSpaceOnUse">
<stop offset="1.24601e-07" stop-color="#041431"/>
<stop offset="0.5" stop-color="#072253"/>
</linearGradient>
<linearGradient id="paint7_linear" x1="80.1595" y1="11.5215" x2="94.1817" y2="11.5215" gradientUnits="userSpaceOnUse">
<stop offset="1.24601e-07" stop-color="#041431"/>
<stop offset="0.5" stop-color="#072253"/>
</linearGradient>
<linearGradient id="paint8_linear" x1="97.7306" y1="11.383" x2="109.946" y2="11.383" gradientUnits="userSpaceOnUse">
<stop offset="1.24601e-07" stop-color="#041431"/>
<stop offset="0.5" stop-color="#072253"/>
</linearGradient>
<linearGradient id="paint9_linear" x1="113.15" y1="11.383" x2="127" y2="11.383" gradientUnits="userSpaceOnUse">
<stop offset="1.24601e-07" stop-color="#041431"/>
<stop offset="0.5" stop-color="#072253"/>
</linearGradient>
<linearGradient id="paint10_linear" x1="113.15" y1="8.61753" x2="127" y2="8.61753" gradientUnits="userSpaceOnUse">
<stop offset="0.5" stop-color="#072253"/>
<stop offset="1" stop-color="#041431"/>
</linearGradient>
</defs>
</svg>
